<svg width="48" height="48" viewBox="0 0 48 48" fill="none" xmlns="http://www.w3.org/2000/svg">
<path fill-rule="evenodd" clip-rule="evenodd" d="M13.4724 11.2528C13.9796 9.94472 15.2112 9 16.6602 9H42.3797C44.2634 9 45.7848 10.5261 45.8573 12.4882V26.5863C45.8573 28.5484 44.2634 30.0745 42.3797 30.0745H24.9194H24.7745L17.0949 37.4143C15.6459 38.795 13.8347 39.5217 11.8785 39.5217H3.7642C3.32951 39.5217 3.03971 39.2311 3.03971 38.795C3.03971 38.359 3.32951 38.0683 3.7642 38.0683H11.8785C13.4724 38.0683 14.9214 37.487 16.0806 36.3969L28.1072 24.8422C28.6143 24.2609 28.9766 23.5342 28.9766 22.7348C28.9766 21.9354 28.6868 21.2087 28.1072 20.6273C27.0204 19.5373 25.2817 19.5373 24.1225 20.5547L14.9938 28.8391C14.7041 29.0571 14.2694 29.0571 13.9796 28.7665C13.9796 28.7301 13.9614 28.712 13.9433 28.6938C13.9252 28.6756 13.9071 28.6575 13.9071 28.6211L13.8347 28.5484C13.4 27.9671 13.1826 27.313 13.1826 26.5863V13.7236L4.3438 24.0429C4.1989 24.1882 3.98155 24.2609 3.7642 24.2609C3.6193 24.2609 3.40195 24.1882 3.25706 24.0429C2.96726 23.7522 2.89481 23.3161 3.18461 23.0255L13.4724 11.2528ZM44.3358 12.4882V16.2671H14.6316V12.4882C14.6316 11.3255 15.501 10.4534 16.6602 10.4534H42.3797C43.4664 10.4534 44.3358 11.3255 44.3358 12.4882ZM14.7041 27.1677L23.1806 19.4646C24.8969 17.9456 27.5895 18.0733 29.1939 19.6826C29.9909 20.482 30.498 21.6447 30.498 22.8801C30.4256 24.0429 29.9909 25.2056 29.1215 26.005L27.5276 27.4584L26.2959 28.6211H42.3797C43.4664 28.6211 44.3358 27.7491 44.3358 26.659V17.7205H14.6316V26.659C14.6316 26.8043 14.6316 26.9497 14.7041 27.1677Z" fill="#828282"/>
</svg>
