<svg width="66" height="59" viewBox="0 0 66 59" fill="none" xmlns="http://www.w3.org/2000/svg">
<path opacity="0.5" d="M0.2 31.4657C0.2 31.9076 0.558172 32.2657 1 32.2657C1.44183 32.2657 1.8 31.9076 1.8 31.4657H0.2ZM1.8 49.7449C1.8 49.303 1.44183 48.9449 1 48.9449C0.558172 48.9449 0.2 49.303 0.2 49.7449H1.8ZM65 20.2623H65.8C65.8 20.2499 65.7997 20.2374 65.7991 20.2249L65 20.2623ZM8.34743 11.9934C3.83286 11.9934 0.2 15.7054 0.2 20.2623H1.8C1.8 16.5642 4.74115 13.5934 8.34743 13.5934V11.9934ZM0.2 20.2623V31.4657H1.8V20.2623H0.2ZM0.2 49.7449V50.7276H1.8V49.7449H0.2ZM0.2 50.7276C0.2 55.1019 3.84665 58.8 8.34743 58.8V57.2C4.72737 57.2 1.8 54.2153 1.8 50.7276H0.2ZM8.34743 58.8H57.6526V57.2H8.34743V58.8ZM57.6526 58.8C62.1671 58.8 65.8 55.0881 65.8 50.5311H64.2C64.2 54.2292 61.2588 57.2 57.6526 57.2V58.8ZM65.8 50.5311V20.2623H64.2V50.5311H65.8ZM65.7991 20.2249C65.588 15.7179 61.9927 11.9934 57.6526 11.9934V13.5934C61.0465 13.5934 64.0253 16.5517 64.2009 20.2998L65.7991 20.2249ZM47.8 12.793V6.11031H46.2V12.793H47.8ZM47.8 6.11031C47.8 2.9292 45.1339 0.2 41.9728 0.2V1.8C44.2256 1.8 46.2 3.78801 46.2 6.11031H47.8ZM41.9728 0.2H23.0242V1.8H41.9728V0.2ZM23.0242 0.2C19.8631 0.2 17.197 2.9292 17.197 6.11031H18.797C18.797 3.78801 20.7714 1.8 23.0242 1.8V0.2ZM17.197 6.11031V12.793H18.797V6.11031H17.197ZM8.34743 13.5934H57.6526V11.9934H8.34743V13.5934ZM46.2 23.5V31.4657H47.8V23.5H46.2ZM47 30.6657H32.5V32.2657H47V30.6657ZM47 32.2657H57.6526V30.6657H47V32.2657ZM17.197 23.5V31.4657H18.797V23.5H17.197ZM17.997 32.2657H25.5V30.6657H17.997V32.2657ZM17.997 30.6657H10V32.2657H17.997V30.6657Z" fill="white"/>
</svg>
