<svg width="20" height="11" viewBox="0 0 20 11" fill="none" xmlns="http://www.w3.org/2000/svg">
<path d="M0.5 5.5L0.146447 5.14645C-0.0488155 5.34171 -0.0488155 5.65829 0.146447 5.85355L0.5 5.5ZM19.5 5.5L19.8536 5.85355C20.0488 5.65829 20.0488 5.34171 19.8536 5.14645L19.5 5.5ZM0.5 5.5C0.853553 5.85355 0.853474 5.85363 0.853413 5.85369C0.853415 5.85369 0.85337 5.85374 0.853374 5.85373C0.853383 5.85372 0.853459 5.85365 0.853603 5.8535C0.853891 5.85322 0.85445 5.85266 0.855279 5.85184C0.856935 5.8502 0.859668 5.8475 0.863461 5.84377C0.871048 5.83632 0.882877 5.82476 0.898826 5.80938C0.930725 5.77862 0.979087 5.73258 1.04294 5.67342C1.17067 5.55508 1.36018 5.38448 1.60369 5.17902C2.09118 4.7677 2.79247 4.21889 3.64538 3.67059C5.36273 2.56658 7.64031 1.5 10 1.5V0.5C7.35969 0.5 4.88727 1.68342 3.10462 2.82941C2.20753 3.40611 1.47132 3.9823 0.958815 4.41473C0.702319 4.63115 0.501207 4.81211 0.363313 4.93986C0.29435 5.00375 0.24115 5.05438 0.20469 5.08954C0.186459 5.10712 0.172409 5.12084 0.162662 5.13041C0.157788 5.1352 0.15399 5.13895 0.151283 5.14164C0.149929 5.14298 0.148848 5.14405 0.148041 5.14486C0.147638 5.14526 0.147303 5.14559 0.147037 5.14586C0.146904 5.14599 0.146757 5.14614 0.14669 5.1462C0.14656 5.14633 0.146447 5.14645 0.5 5.5ZM10 1.5C12.3597 1.5 14.6373 2.56658 16.3546 3.67059C17.2075 4.21889 17.9088 4.7677 18.3963 5.17902C18.6398 5.38448 18.8293 5.55508 18.9571 5.67342C19.0209 5.73258 19.0693 5.77862 19.1012 5.80938C19.1171 5.82476 19.129 5.83632 19.1365 5.84377C19.1403 5.8475 19.1431 5.8502 19.1447 5.85184C19.1455 5.85266 19.1461 5.85322 19.1464 5.8535C19.1465 5.85365 19.1466 5.85372 19.1466 5.85373C19.1466 5.85374 19.1466 5.85369 19.1466 5.85369C19.1465 5.85363 19.1464 5.85355 19.5 5.5C19.8536 5.14645 19.8534 5.14633 19.8533 5.1462C19.8532 5.14614 19.8531 5.14599 19.853 5.14586C19.8527 5.14559 19.8524 5.14526 19.852 5.14486C19.8512 5.14405 19.8501 5.14298 19.8487 5.14164C19.846 5.13895 19.8422 5.1352 19.8373 5.13041C19.8276 5.12084 19.8135 5.10712 19.7953 5.08954C19.7589 5.05438 19.7057 5.00375 19.6367 4.93986C19.4988 4.81211 19.2977 4.63115 19.0412 4.41473C18.5287 3.9823 17.7925 3.40611 16.8954 2.82941C15.1127 1.68342 12.6403 0.5 10 0.5V1.5ZM19.5 5.5C19.1464 5.14645 19.1465 5.14637 19.1466 5.14631C19.1466 5.14631 19.1466 5.14626 19.1466 5.14627C19.1466 5.14628 19.1465 5.14635 19.1464 5.1465C19.1461 5.14678 19.1455 5.14734 19.1447 5.14816C19.1431 5.1498 19.1403 5.1525 19.1365 5.15623C19.129 5.16368 19.1171 5.17524 19.1012 5.19062C19.0693 5.22138 19.0209 5.26742 18.9571 5.32658C18.8293 5.44492 18.6398 5.61552 18.3963 5.82098C17.9088 6.2323 17.2075 6.78111 16.3546 7.32941C14.6373 8.43342 12.3597 9.5 10 9.5V10.5C12.6403 10.5 15.1127 9.31658 16.8954 8.17059C17.7925 7.59389 18.5287 7.0177 19.0412 6.58527C19.2977 6.36885 19.4988 6.18789 19.6367 6.06014C19.7057 5.99625 19.7589 5.94562 19.7953 5.91046C19.8135 5.89288 19.8276 5.87916 19.8373 5.86959C19.8422 5.8648 19.846 5.86105 19.8487 5.85836C19.8501 5.85702 19.8512 5.85595 19.852 5.85514C19.8524 5.85474 19.8527 5.85441 19.853 5.85414C19.8531 5.85401 19.8532 5.85386 19.8533 5.8538C19.8534 5.85367 19.8536 5.85355 19.5 5.5ZM10 9.5C7.64031 9.5 5.36273 8.43342 3.64538 7.32941C2.79247 6.78111 2.09118 6.2323 1.60369 5.82098C1.36018 5.61552 1.17067 5.44492 1.04294 5.32658C0.979087 5.26742 0.930725 5.22138 0.898826 5.19062C0.882877 5.17524 0.871048 5.16368 0.863461 5.15623C0.859668 5.1525 0.856935 5.1498 0.855279 5.14816C0.85445 5.14734 0.853891 5.14678 0.853603 5.1465C0.853459 5.14635 0.853383 5.14628 0.853374 5.14627C0.85337 5.14626 0.853415 5.14631 0.853413 5.14631C0.853474 5.14637 0.853553 5.14645 0.5 5.5C0.146447 5.85355 0.14656 5.85367 0.14669 5.8538C0.146757 5.85386 0.146904 5.85401 0.147037 5.85414C0.147303 5.85441 0.147638 5.85474 0.148041 5.85514C0.148848 5.85595 0.149929 5.85702 0.151283 5.85836C0.15399 5.86105 0.157788 5.8648 0.162662 5.86959C0.172409 5.87916 0.186459 5.89288 0.20469 5.91046C0.24115 5.94562 0.29435 5.99625 0.363313 6.06014C0.501207 6.18789 0.702319 6.36885 0.958815 6.58527C1.47132 7.0177 2.20753 7.59389 3.10462 8.17059C4.88727 9.31658 7.35969 10.5 10 10.5V9.5Z" fill="#BDBDBD"/>
<path d="M12.5 5.5C12.5 6.88071 11.3807 8 10 8C8.61929 8 7.5 6.88071 7.5 5.5C7.5 4.11929 8.61929 3 10 3C11.3807 3 12.5 4.11929 12.5 5.5Z" fill="#BDBDBD"/>
</svg>
