<svg width="20" height="11" viewBox="0 0 20 11" fill="none" xmlns="http://www.w3.org/2000/svg">
<path fill-rule="evenodd" clip-rule="evenodd" d="M0.146447 5.85355L0.5 5.5C0.146447 5.85355 0.14656 5.85367 0.14669 5.8538L0.147037 5.85414L0.148041 5.85514L0.151283 5.85836L0.162662 5.86959C0.172409 5.87916 0.186459 5.89288 0.20469 5.91046C0.24115 5.94562 0.29435 5.99625 0.363313 6.06014C0.501207 6.18789 0.702319 6.36885 0.958815 6.58527C1.47132 7.0177 2.20753 7.59389 3.10462 8.17059C4.88727 9.31658 7.35969 10.5 10 10.5C12.6403 10.5 15.1127 9.31658 16.8954 8.17059C17.7925 7.59389 18.5287 7.0177 19.0412 6.58527C19.2977 6.36885 19.4988 6.18789 19.6367 6.06014C19.7057 5.99625 19.7589 5.94562 19.7953 5.91046C19.8135 5.89288 19.8276 5.87916 19.8373 5.86959L19.8487 5.85836L19.852 5.85514L19.853 5.85414L19.8533 5.8538C19.8534 5.85367 19.8536 5.85355 19.5 5.5L19.8536 5.85355C20.0488 5.65829 20.0488 5.34171 19.8536 5.14645L19.5 5.5C19.8536 5.14645 19.8534 5.14633 19.8533 5.1462L19.853 5.14586L19.852 5.14486L19.8487 5.14164L19.8373 5.13041C19.8276 5.12084 19.8135 5.10712 19.7953 5.08954C19.7589 5.05438 19.7057 5.00375 19.6367 4.93986C19.4988 4.81211 19.2977 4.63115 19.0412 4.41473C18.5287 3.9823 17.7925 3.40611 16.8954 2.82941C15.1127 1.68342 12.6403 0.5 10 0.5C7.35969 0.5 4.88727 1.68342 3.10462 2.82941C2.20753 3.40611 1.47132 3.9823 0.958815 4.41473C0.702319 4.63115 0.501207 4.81211 0.363313 4.93986C0.29435 5.00375 0.24115 5.05438 0.20469 5.08954C0.186459 5.10712 0.172409 5.12084 0.162662 5.13041L0.151283 5.14164L0.148041 5.14486L0.147037 5.14586L0.14669 5.1462C0.14656 5.14633 0.146447 5.14645 0.5 5.5L0.146447 5.14645C-0.0488155 5.34171 -0.0488155 5.65829 0.146447 5.85355ZM1.60369 5.82098C1.4614 5.70093 1.33756 5.59278 1.2337 5.5C1.33756 5.40722 1.4614 5.29907 1.60369 5.17902C2.09118 4.7677 2.79247 4.21889 3.64538 3.67059C5.36273 2.56658 7.64031 1.5 10 1.5C12.3597 1.5 14.6373 2.56658 16.3546 3.67059C17.2075 4.21889 17.9088 4.7677 18.3963 5.17902C18.5386 5.29907 18.6624 5.40722 18.7663 5.5C18.6624 5.59278 18.5386 5.70093 18.3963 5.82098C17.9088 6.2323 17.2075 6.78111 16.3546 7.32941C14.6373 8.43342 12.3597 9.5 10 9.5C7.64031 9.5 5.36273 8.43342 3.64538 7.32941C2.79247 6.78111 2.09118 6.2323 1.60369 5.82098ZM10 8C11.3807 8 12.5 6.88071 12.5 5.5C12.5 4.11929 11.3807 3 10 3C8.61929 3 7.5 4.11929 7.5 5.5C7.5 6.88071 8.61929 8 10 8Z" fill="#8C06AD"/>
</svg>
