<svg width="13" height="18" viewBox="0 0 13 18" fill="none" xmlns="http://www.w3.org/2000/svg">
<path d="M6.5 17.2785C6.25316 17.2785 6.00633 17.1962 5.84177 16.9494C5.26582 16.2911 0 9.79114 0 6.5C0 2.87975 2.87975 0 6.5 0C10.1203 0 13 2.87975 13 6.5C13 7.73418 12.3418 9.37975 11.0253 11.519C10.7785 11.9304 10.2848 12.0127 9.87342 11.7658C9.46202 11.519 9.37975 11.0253 9.62658 10.6139C11.0253 8.31013 11.3544 7.07595 11.3544 6.5C11.3544 3.78481 9.13291 1.64557 6.5 1.64557C3.86709 1.64557 1.64557 3.86709 1.64557 6.5C1.64557 8.55696 4.93671 13.2468 7.15823 15.8797C7.40506 16.2911 7.40506 16.7848 6.99367 17.1139C6.91139 17.1962 6.66456 17.2785 6.5 17.2785Z" fill="#828282"/>
</svg>
