<svg width="54" height="54" viewBox="0 0 54 54" fill="none" xmlns="http://www.w3.org/2000/svg">
<path fill-rule="evenodd" clip-rule="evenodd" d="M2.8 0.200195C1.2536 0.200195 0 1.4538 0 3.00019V45.0002C0 46.5466 1.2536 47.8002 2.8 47.8002H35.8V46.2002H2.8C2.13726 46.2002 1.6 45.6629 1.6 45.0002V3.00019C1.6 2.33745 2.13726 1.8002 2.8 1.8002H44.8C45.4627 1.8002 46 2.33745 46 3.0002V35.5002H47.6V3.0002C47.6 1.4538 46.3464 0.200195 44.8 0.200195H2.8ZM46 40.5002V46.2002H40.3V47.8002H46V53.5002H47.6V47.8002H53.3V46.2002H47.6V40.5002H46ZM32.8 21.0002C30 21.0002 27.8 18.8002 27.8 16.0002C27.8 13.2002 30 11.0002 32.8 11.0002C35.6 11.0002 37.8 13.2002 37.8 16.0002C37.8 18.8002 35.6 21.0002 32.8 21.0002ZM19.8 23.0002L28.8 32.0002L32.8 28.0002L39.8 35.0002H7.8L19.8 23.0002Z" fill="#828282"/>
</svg>
