<svg width="40" height="40" viewBox="0 0 40 40" fill="none" xmlns="http://www.w3.org/2000/svg">
<path d="M23.854 28C23.6413 28 23.4287 28 23.3224 28C22.3656 27.8932 21.4088 27.5726 20.4521 27.2521C20.1331 27.1452 20.0268 26.8247 20.1331 26.5042C20.2394 26.1836 20.5584 26.0768 20.8773 26.1836C21.7278 26.5042 22.5782 26.8247 23.4287 26.9316C24.2792 27.0384 25.236 26.7179 25.8738 26.0768L26.5117 25.4357C26.7243 25.222 26.9369 24.7947 26.9369 24.4741C26.9369 24.1536 26.8306 23.7262 26.5117 23.5125L25.1297 22.1235C24.5981 21.5893 23.6413 21.5893 23.2161 22.1235L22.5782 22.6578C22.0467 23.192 21.3025 23.192 20.6647 22.7646C20.0268 22.3372 19.389 21.803 18.7511 21.2688C18.2196 20.7346 17.688 20.0935 17.1565 19.3456C16.8376 18.8114 16.8376 17.9566 17.3691 17.4224L18.007 16.7813C18.2196 16.5676 18.4322 16.2471 18.4322 15.8197C18.4322 15.3923 18.2196 15.0718 18.007 14.8581L16.6249 13.4691C16.0934 12.9349 15.2429 12.9349 14.7114 13.4691L13.9672 14.1102C13.3294 14.7513 13.0104 15.7129 13.1167 16.5676C13.3294 17.9566 13.8609 19.4524 14.6051 20.7346C15.2429 21.6962 15.8808 22.5509 16.7313 23.2988C17.2628 23.8331 17.9007 24.3673 18.5385 24.7947C18.7511 25.0083 18.8574 25.3289 18.6448 25.5426C18.4322 25.8631 18.1133 25.8631 17.9007 25.7563C17.1565 25.222 16.5186 24.6878 15.9871 24.1536C15.1366 23.2988 14.3925 22.3372 13.7546 21.2688C12.9041 19.773 12.3726 18.2771 12.0537 16.6745C11.841 15.4992 12.2663 14.217 13.2231 13.3623L13.8609 12.7212C14.8177 11.7596 16.4123 11.7596 17.3691 12.7212L18.7511 14.1102C19.1764 14.5376 19.4953 15.1786 19.4953 15.8197C19.4953 16.4608 19.1764 17.1018 18.7511 17.6361L18.1133 18.1703C18.007 18.384 18.007 18.5977 18.1133 18.7045C18.5385 19.3456 18.9637 19.9866 19.4953 20.5209C20.0268 21.0551 20.5584 21.5893 21.1962 22.0167C21.4088 22.1235 21.6215 22.1235 21.7278 22.0167L22.3656 21.3756C23.3224 20.414 24.917 20.414 25.8738 21.3756L27.2558 22.7646C27.6811 23.192 28 23.8331 28 24.4741C28 25.1152 27.7874 25.7563 27.2558 26.1836L26.618 26.8247C25.8738 27.5726 24.917 28 23.854 28Z" fill="#828282"/>
<path fill-rule="evenodd" clip-rule="evenodd" d="M20 39C30.4934 39 39 30.4934 39 20C39 9.50659 30.4934 1 20 1C9.50659 1 1 9.50659 1 20C1 30.4934 9.50659 39 20 39ZM20 40C31.0457 40 40 31.0457 40 20C40 8.9543 31.0457 0 20 0C8.9543 0 0 8.9543 0 20C0 31.0457 8.9543 40 20 40Z" fill="#828282"/>
</svg>
