<svg width="17" height="16" viewBox="0 0 17 16" fill="none" xmlns="http://www.w3.org/2000/svg">
<path d="M10.3153 0C6.76129 0 3.81406 2.77551 3.81406 6.12245C3.81406 7.5102 4.33416 8.81633 5.20099 9.95918L0.26005 14.6122C-0.0866832 14.9388 -0.0866832 15.4286 0.26005 15.7551C0.433416 15.9184 0.693466 16 0.866832 16C1.0402 16 1.30025 15.9184 1.47361 15.7551L7.02134 10.5306L7.10802 10.449C7.10802 10.3673 7.19471 10.3673 7.19471 10.2857C7.19471 10.2041 7.19471 10.2041 7.19471 10.1224C7.19471 10.0408 7.19471 10.0408 7.19471 9.95918C7.19471 9.87755 7.19471 9.87755 7.19471 9.79592C7.19471 9.71428 7.19471 9.71429 7.19471 9.63265C7.19471 9.55102 7.10802 9.55102 7.10802 9.46939C7.10802 9.38776 7.02134 9.38775 7.02134 9.30612C6.06782 8.4898 5.54773 7.26531 5.54773 6.04082C5.54773 3.59184 7.71481 1.55102 10.3153 1.55102C12.9158 1.55102 15.0829 3.59184 15.0829 6.04082C15.0829 8.4898 12.9158 10.6122 10.3153 10.6122C10.0553 10.6122 9.88189 10.6122 9.70852 10.6122C9.2751 10.5306 8.755 10.8571 8.755 11.3469C8.66832 11.7551 9.01505 12.2449 9.53515 12.2449C9.7952 12.2449 10.1419 12.3265 10.402 12.3265C13.956 12.3265 16.9032 9.55102 16.9032 6.20408C16.9032 2.85714 13.8693 0 10.3153 0Z" fill="#828282"/>
</svg>
