<svg width="40" height="40" viewBox="0 0 40 40" fill="none" xmlns="http://www.w3.org/2000/svg">
<path fill-rule="evenodd" clip-rule="evenodd" d="M39 20C39 30.4934 30.4934 39 20 39C9.50659 39 1 30.4934 1 20C1 9.50659 9.50659 1 20 1C30.4934 1 39 9.50659 39 20ZM20 40C31.0457 40 40 31.0457 40 20C40 8.9543 31.0457 0 20 0C8.9543 0 0 8.9543 0 20C0 31.0457 8.9543 40 20 40ZM18 12C17.6021 12 17.1312 12.0392 16.7446 12.2286C16.5426 12.3275 16.3497 12.4741 16.2091 12.6885C16.0672 12.9051 16 13.1584 16 13.4345V15H13.5C12.8091 15 12.1859 15.3221 11.7426 15.7754C11.3008 16.2272 11 16.8477 11 17.5V21C11 21.2761 11.2239 21.5 11.5 21.5C11.7761 21.5 12 21.2761 12 21V17.5C12 17.1523 12.1659 16.7728 12.4576 16.4746C12.7477 16.1779 13.1244 16 13.5 16H20H26.5C27.2986 16 27.9525 16.6075 28 17.5124V26.5C28 27.3797 27.3686 28 26.5 28H13.5C13.0146 28 12.636 27.8679 12.3889 27.6652C12.1531 27.4718 12 27.1855 12 26.7759C12 26.4997 11.7761 26.2759 11.5 26.2759C11.2239 26.2759 11 26.4997 11 26.7759C11 27.4697 11.2759 28.0455 11.7546 28.4383C12.2221 28.8218 12.8434 29 13.5 29H26.5C27.9154 29 29 27.9375 29 26.5V17.5C29 17.4922 28.9998 17.4844 28.9995 17.4766C28.9334 16.0703 27.8734 15 26.5 15H24V13.5C24 12.9133 23.6995 12.5042 23.2759 12.2719C22.8888 12.0597 22.4156 12 22 12H18ZM17 13.4345C17 13.3243 17.0251 13.2678 17.0455 13.2367C17.0673 13.2035 17.1066 13.1648 17.1844 13.1266C17.3575 13.0418 17.6366 13 18 13H22C22.3457 13 22.6225 13.0541 22.7951 13.1488C22.9312 13.2234 23 13.3143 23 13.5V15H20H17V13.4345Z" fill="#828282"/>
</svg>
