<svg width="66" height="66" viewBox="0 0 66 66" fill="none" xmlns="http://www.w3.org/2000/svg">
<g opacity="0.5">
<path d="M1.88376 25.5C1.30601 27.9057 1 30.4171 1 33C1 38.625 2.45135 43.911 5 48.504M1.88376 25.5C5.25918 11.4452 17.9098 1 33 1C50.6731 1 65 15.3269 65 33C65 50.6731 50.6731 65 33 65C26.9638 65 21.318 63.3287 16.5 60.4236M1.88376 25.5L20 18.5L25.5 10.5L31.5 18.5L63 25.5" stroke="white" stroke-width="1.6" stroke-linecap="round" stroke-linejoin="round"/>
<circle cx="22.5" cy="32.5" r="2.5" fill="white"/>
<circle cx="44.5" cy="32.5" r="2.5" fill="white"/>
<path d="M20.5657 47.4343C20.2533 47.1219 19.7467 47.1219 19.4343 47.4343C19.1219 47.7467 19.1219 48.2533 19.4343 48.5657L20.5657 47.4343ZM47.5657 48.5657C47.8781 48.2533 47.8781 47.7467 47.5657 47.4343C47.2533 47.1219 46.7467 47.1219 46.4343 47.4343L47.5657 48.5657ZM20 48C19.4343 48.5657 19.4346 48.5659 19.4348 48.5662C19.435 48.5663 19.4353 48.5666 19.4355 48.5669C19.436 48.5673 19.4365 48.5679 19.4371 48.5685C19.4384 48.5697 19.4399 48.5713 19.4418 48.5731C19.4455 48.5768 19.4504 48.5816 19.4566 48.5876C19.469 48.5996 19.4862 48.6163 19.5083 48.6372C19.5526 48.6791 19.6162 48.7381 19.699 48.8119C19.8645 48.9595 20.1066 49.1663 20.4223 49.4123C21.0535 49.9041 21.9812 50.5546 23.1821 51.2038C25.5841 52.5022 29.0893 53.8 33.5 53.8V52.2C29.4107 52.2 26.1659 50.9978 23.9429 49.7962C22.8313 49.1954 21.9777 48.5959 21.4058 48.1502C21.12 47.9275 20.905 47.7436 20.7639 47.6178C20.6933 47.5548 20.6413 47.5065 20.6081 47.4751C20.5915 47.4594 20.5797 47.448 20.5726 47.4411C20.569 47.4376 20.5667 47.4353 20.5655 47.4342C20.565 47.4336 20.5647 47.4333 20.5647 47.4333C20.5647 47.4334 20.5648 47.4334 20.565 47.4336C20.5651 47.4337 20.5652 47.4339 20.5653 47.4339C20.5655 47.4341 20.5657 47.4343 20 48ZM33.5 53.8C37.9107 53.8 41.4159 52.5022 43.8179 51.2038C45.0188 50.5546 45.9465 49.9041 46.5777 49.4123C46.8934 49.1663 47.1355 48.9595 47.301 48.8119C47.3838 48.7381 47.4474 48.6791 47.4917 48.6372C47.5138 48.6163 47.531 48.5996 47.5434 48.5876C47.5496 48.5816 47.5545 48.5768 47.5582 48.5731C47.5601 48.5713 47.5616 48.5697 47.5629 48.5685C47.5635 48.5679 47.564 48.5673 47.5645 48.5669C47.5647 48.5666 47.565 48.5663 47.5652 48.5662C47.5654 48.5659 47.5657 48.5657 47 48C46.4343 47.4343 46.4345 47.4341 46.4347 47.4339C46.4348 47.4339 46.4349 47.4337 46.435 47.4336C46.4352 47.4334 46.4353 47.4334 46.4353 47.4333C46.4353 47.4333 46.435 47.4336 46.4345 47.4342C46.4333 47.4353 46.431 47.4376 46.4274 47.4411C46.4203 47.448 46.4085 47.4594 46.3919 47.4751C46.3587 47.5065 46.3067 47.5548 46.2361 47.6178C46.095 47.7436 45.88 47.9275 45.5942 48.1502C45.0223 48.5959 44.1687 49.1954 43.0571 49.7962C40.8341 50.9978 37.5893 52.2 33.5 52.2V53.8Z" fill="white"/>
</g>
</svg>
