<svg width="24" height="24" viewBox="0 0 24 24" fill="none" xmlns="http://www.w3.org/2000/svg">
<path d="M12.5 12H11.5C9 12 7 10 7 7.5C7 5 9 3 11.5 3C14 3 16 5 16 7.5C16 8.1 15.9 8.6 15.7 9.1C15.5 9.6 15.8 10.2 16.3 10.4C16.8 10.6 17.4 10.3 17.6 9.8C17.8 9.1 18 8.3 18 7.5C18 3.9 15.1 1 11.5 1C7.9 1 5 3.9 5 7.5C5 9.4 5.8 11.1 7.1 12.3C3 13.4 0 17.1 0 21.5C0 22.1 0.4 22.5 1 22.5C1.6 22.5 2 22.1 2 21.5C2 17.4 5.4 14 9.5 14H12.5C16.6 14 20 17.4 20 21.5C20 22.1 20.4 22.5 21 22.5C21.6 22.5 22 22.1 22 21.5C22 16.3 17.7 12 12.5 12Z" fill="#828282"/>
</svg>
