<svg width="16" height="16" viewBox="0 0 16 16" fill="none" xmlns="http://www.w3.org/2000/svg">
<path d="M8.00318 14.5584C5.86667 14.5584 5.61587 14.5489 4.77143 14.5108C3.99048 14.4759 3.56825 14.3457 3.28571 14.2346C2.91111 14.0885 2.64444 13.917 2.36508 13.6376C2.08571 13.3582 1.91111 13.0915 1.76825 12.7168C1.66032 12.4342 1.52698 12.0119 1.49206 11.2308C1.45397 10.3862 1.44444 10.1353 1.44444 7.99841C1.44444 5.86148 1.45397 5.61064 1.49206 4.76603C1.52698 3.98492 1.65714 3.56261 1.76825 3.28002C1.91429 2.90534 2.08571 2.63862 2.36508 2.3592C2.64444 2.07978 2.91111 1.90514 3.28571 1.76225C3.56825 1.6543 3.99048 1.52094 4.77143 1.48601C5.61587 1.44791 5.86667 1.43838 8.00318 1.43838C10.1397 1.43838 10.3905 1.44791 11.2349 1.48601C12.0159 1.52094 12.4381 1.65112 12.7206 1.76225C13.0952 1.90832 13.3619 2.07978 13.6413 2.3592C13.9206 2.63862 14.0952 2.90534 14.2381 3.28002C14.346 3.56261 14.4794 3.98492 14.5143 4.76603C14.5524 5.61064 14.5619 5.86148 14.5619 7.99841C14.5619 10.1353 14.5524 10.3862 14.5143 11.2308C14.4794 12.0119 14.3492 12.4342 14.2381 12.7168C14.0921 13.0915 13.9206 13.3582 13.6413 13.6376C13.3619 13.917 13.0952 14.0917 12.7206 14.2346C12.4381 14.3425 12.0159 14.4759 11.2349 14.5108C10.3905 14.5521 10.1365 14.5584 8.00318 14.5584ZM8.00318 16C10.1746 16 10.4476 15.9905 11.3016 15.9524C12.1524 15.9143 12.7333 15.7777 13.2413 15.5809C13.7683 15.3777 14.2127 15.1014 14.6571 14.6569C15.1016 14.2123 15.3746 13.7646 15.581 13.2407C15.7778 12.7327 15.9143 12.1516 15.9524 11.2975C15.9905 10.4465 16 10.1734 16 8.00159C16 5.82973 15.9905 5.55666 15.9524 4.70252C15.9143 3.85156 15.7778 3.27049 15.581 2.75928C15.3778 2.23219 15.1016 1.78766 14.6571 1.34312C14.2127 0.898591 13.7651 0.62552 13.2413 0.41913C12.7333 0.222266 12.1524 0.0857313 11.2984 0.0476285C10.4444 0.0095257 10.1746 0 8 0C5.8254 0 5.55556 0.0095257 4.70159 0.0476285C3.85079 0.0857313 3.26984 0.222266 2.75873 0.41913C2.23175 0.622345 1.7873 0.898591 1.34286 1.34312C0.898412 1.78766 0.625397 2.23536 0.419048 2.75928C0.222223 3.26731 0.0857143 3.84838 0.0476191 4.70252C0.00952381 5.55666 0 5.82655 0 8.00159C0 10.1766 0.00952381 10.4465 0.0476191 11.3007C0.0857143 12.1516 0.222223 12.7327 0.419048 13.2439C0.622223 13.771 0.898412 14.2155 1.34286 14.6601C1.7873 15.1046 2.23492 15.3777 2.75873 15.584C3.26667 15.7809 3.84762 15.9174 4.70159 15.9555C5.55873 15.9905 5.83175 16 8.00318 16Z" fill="white"/>
<path d="M8.00315 12.1072C10.2698 12.1072 12.1111 10.2687 12.1111 7.99843C12.1111 5.72813 10.273 3.88967 8.00315 3.88967C5.73331 3.88967 3.89521 5.72813 3.89521 7.99843C3.89521 10.2687 5.73331 12.1072 8.00315 12.1072ZM8.00315 5.33441C9.47616 5.33441 10.6698 6.52829 10.6698 8.0016C10.6698 9.47491 9.47616 10.6688 8.00315 10.6688C6.53013 10.6688 5.33648 9.47491 5.33648 8.0016C5.33648 6.52829 6.53013 5.33441 8.00315 5.33441Z" fill="white"/>
<path d="M3.73329 11.3134C3.2038 11.3134 2.77456 11.7427 2.77456 12.2723C2.77456 12.8019 3.2038 13.2312 3.73329 13.2312C4.26278 13.2312 4.69202 12.8019 4.69202 12.2723C4.69202 11.7427 4.26278 11.3134 3.73329 11.3134Z" fill="white"/>
</svg>
