<svg width="67" height="24" viewBox="0 0 67 24" fill="none" xmlns="http://www.w3.org/2000/svg">
<path d="M44.5232 5.06335V16.2782C44.5232 16.4559 44.3872 16.5891 44.206 16.5891H41.8722C41.6909 16.5891 41.555 16.4559 41.555 16.2782V5.06335C41.555 4.88569 41.6909 4.75244 41.8722 4.75244H44.206C44.3872 4.75244 44.5232 4.88569 44.5232 5.06335ZM62.7403 4.75244H60.1346C59.9986 4.75244 59.8854 4.84127 59.84 4.97452L57.7782 11.6146L55.5123 4.97452C55.467 4.84127 55.3537 4.77465 55.2178 4.77465H53.3825C53.2465 4.77465 53.1332 4.86348 53.0879 4.97452L50.8221 11.6146L48.7149 4.97452C48.6696 4.84127 48.5563 4.75244 48.4204 4.75244H45.8147C45.724 4.75244 45.6108 4.79686 45.5654 4.88569C45.4975 4.97452 45.4975 5.06335 45.5201 5.15218L49.372 16.3893C49.4173 16.5225 49.5306 16.5891 49.6666 16.5891H51.7511C51.887 16.5891 52.0003 16.5003 52.0457 16.3893L54.2888 9.838L56.532 16.3893C56.5773 16.5225 56.6906 16.5891 56.8265 16.5891H58.9111C59.047 16.5891 59.1603 16.5003 59.2056 16.3893L63.0575 5.15218C63.0801 5.06335 63.0802 4.95231 63.0122 4.88569C62.9442 4.79686 62.8536 4.75244 62.7403 4.75244ZM66.6828 4.75244H64.349C64.1677 4.75244 64.0318 4.88569 64.0318 5.06335V16.2782C64.0318 16.4559 64.1677 16.5891 64.349 16.5891H66.6828C66.8641 16.5891 67 16.4559 67 16.2782V5.06335C67 4.88569 66.8414 4.75244 66.6828 4.75244ZM40.2181 16.2116C40.3541 16.3671 40.2408 16.5891 40.0369 16.5891H37.1593C37.046 16.5891 36.9327 16.5447 36.8647 16.4559L36.3889 15.8785C35.392 16.5003 34.2137 16.8778 32.9675 16.8778C29.4782 16.8778 26.6459 14.1019 26.6459 10.6819C26.6459 7.26191 29.4782 4.48595 32.9675 4.48595C36.4569 4.48595 39.2891 7.26191 39.2891 10.6819C39.2891 11.9033 38.9266 13.0581 38.2922 14.0353L40.2181 16.2116ZM34.5309 13.7021L33.2847 12.2142C33.1488 12.0588 33.2621 11.8145 33.466 11.8145H36.0944C36.2303 11.4592 36.2983 11.0594 36.2983 10.6597C36.2983 8.81645 34.8935 7.21749 32.9675 7.21749C31.0416 7.21749 29.6368 8.81645 29.6368 10.6597C29.6368 12.5029 31.0416 14.0797 32.9675 14.0797C33.534 14.1019 34.0551 13.9464 34.5309 13.7021ZM19.4406 16.145C19.5086 16.6113 19.35 16.8112 19.2141 16.8112C19.0555 16.8112 18.8515 16.6113 18.6023 16.256C18.3531 15.8785 18.2624 15.4565 18.3984 15.2567C18.4664 15.1234 18.6476 15.0568 18.8515 15.1234C19.2367 15.2567 19.3953 15.8563 19.4406 16.145ZM17.1975 17.1665C17.6733 17.5663 17.8319 18.0548 17.5827 18.388C17.4467 18.5656 17.2202 18.6767 16.9256 18.6767C16.6537 18.6767 16.3818 18.5878 16.1779 18.4102C15.7474 18.0326 15.6114 17.4108 15.906 17.0777C16.0193 16.9445 16.2005 16.8778 16.4271 16.8778C16.6764 16.8556 16.9483 16.9667 17.1975 17.1665ZM16.3818 21.0307C18.4664 21.0307 20.7322 21.7413 23.2472 23.9177C23.4964 24.1397 23.8363 23.8732 23.6097 23.5845C21.14 20.5421 18.8742 19.9647 16.6084 19.4761C13.8214 18.8765 12.394 17.3442 11.397 15.6564C11.1931 15.3233 11.1025 15.3899 11.1025 15.8119C11.0798 16.3448 11.1251 17.0333 11.2384 17.7217C11.1251 17.7217 11.0118 17.7217 10.8985 17.7217C6.93338 17.7217 3.69327 14.5682 3.69327 10.6597C3.69327 6.75113 6.91072 3.59764 10.8985 3.59764C14.8637 3.59764 18.1038 6.75113 18.1038 10.6597C18.1038 10.9262 18.0812 11.2149 18.0585 11.4814C17.5374 11.3925 16.4951 11.3703 15.77 11.437C15.4981 11.4592 15.5435 11.5924 15.7474 11.6146C18.1265 12.0366 19.7579 13.4801 20.1431 16.1006C20.1431 16.1672 20.2337 16.1894 20.2563 16.1228C21.2306 14.5238 21.7971 12.6584 21.7971 10.6375C21.7744 4.77465 16.9029 0 10.8985 0C4.87149 0 0 4.77465 0 10.6819C0 16.5891 4.87149 21.3638 10.8985 21.3638C12.4846 21.3416 14.0707 21.0307 16.3818 21.0307Z" fill="white"/>
</svg>
