<svg width="127" height="24" viewBox="0 0 127 24" fill="none" xmlns="http://www.w3.org/2000/svg">
<g>
<path d="M33.103 15.3013C33.6285 15.8777 34.259 16.2969 35.0472 16.6114C35.8353 16.9258 36.7286 17.083 37.832 17.083C38.3575 17.083 38.8829 17.0306 39.3033 16.9782C39.7762 16.9258 40.144 16.821 40.5118 16.6638C40.8796 16.559 41.1949 16.4018 41.5102 16.2969C41.7729 16.1397 42.0356 16.0349 42.2458 15.9301L41.878 15.1441C41.6678 15.2489 41.4576 15.3537 41.2474 15.4585C41.0373 15.5633 40.8271 15.6157 40.5643 15.7205C40.3016 15.7729 40.0389 15.8777 39.7236 15.8777C39.4084 15.9301 39.0406 15.9301 38.6202 15.9301C37.832 15.9301 37.149 15.7729 36.6761 15.4585C36.1506 15.1441 35.7828 14.7249 35.4675 14.2533C35.2048 13.7293 34.9946 13.1004 34.8895 12.4192C34.7845 11.6856 34.7319 10.952 34.7319 10.1135C34.7319 9.48472 34.7845 8.8035 34.837 8.12227C34.8895 7.44105 35.0472 6.86463 35.3099 6.34061C35.5726 5.8166 35.8879 5.39738 36.3608 5.03057C36.8337 4.71616 37.4642 4.50655 38.2524 4.50655C38.988 4.50655 39.6185 4.71616 40.144 5.08297C40.6694 5.44978 40.9847 6.0786 41.1423 6.86463H41.9831V4.29695C41.7203 4.19214 41.4576 4.08734 41.1423 3.98253C40.8271 3.87773 40.5118 3.82533 40.144 3.77293C39.7762 3.72053 39.4609 3.72053 39.0931 3.66812C38.7778 3.66812 38.4626 3.61572 38.1998 3.61572C37.0439 3.61572 36.0981 3.77293 35.2574 4.08734C34.4692 4.40175 33.7861 4.87336 33.2607 5.44978C32.7352 6.0262 32.3674 6.75983 32.1047 7.59826C31.842 8.43668 31.7369 9.43232 31.7369 10.4804C31.7369 11.476 31.842 12.4192 32.1047 13.2052C32.2623 14.0961 32.6301 14.7773 33.103 15.3013Z" fill="white"/>
<path d="M84.4915 16.6637C85.1221 16.6113 85.7526 16.4017 86.2255 16.1397C86.7509 15.8253 87.1713 15.4061 87.434 14.8297C87.7493 14.2533 87.9069 13.4672 87.9069 12.4716C87.9069 11.738 87.8018 11.1616 87.5916 10.6375C87.3815 10.1135 87.0662 9.74671 86.5933 9.3799C86.1204 9.06549 85.5424 8.85589 84.8068 8.69868C84.0712 8.54147 83.1779 8.48907 82.127 8.48907H81.0236V5.39737C81.0236 5.08296 81.0761 4.87335 81.2338 4.76855C81.3914 4.66375 81.6541 4.66374 82.0745 4.66374H83.6508C84.1237 4.66374 84.5441 4.66375 84.8593 4.71615C85.1746 4.76855 85.4373 4.82095 85.595 4.97816C85.8051 5.13536 85.9628 5.34497 86.0679 5.60698C86.173 5.86899 86.3306 6.2358 86.4357 6.70741H87.1188V3.82532H77.4506V4.24453C77.5031 4.24453 77.5557 4.29693 77.7133 4.29693C77.8709 4.34933 77.976 4.40174 78.0286 4.45414C78.0811 4.50654 78.1336 4.61134 78.1862 4.76855C78.1862 4.92575 78.2387 5.08296 78.2387 5.29257V15.3013C78.2387 15.5109 78.2387 15.7205 78.1862 15.8253C78.1862 15.9825 78.1336 16.0873 78.0286 16.1397C77.976 16.1921 77.8709 16.2969 77.7133 16.2969C77.5557 16.3493 77.5031 16.3493 77.4506 16.3493V16.7685H82.3372C83.1254 16.7685 83.8084 16.7685 84.4915 16.6637ZM81.2863 15.7205C81.1812 15.6157 81.1287 15.5109 81.1287 15.3537C81.1287 15.1965 81.0761 14.9869 81.0761 14.7249V9.2751H82.1796C83.1779 9.2751 83.9135 9.53711 84.3339 10.0611C84.7542 10.5851 84.9644 11.4236 84.9644 12.5764C84.9644 13.3624 84.9119 13.9389 84.7542 14.4105C84.5966 14.8821 84.439 15.1965 84.1763 15.4585C83.9135 15.6681 83.6508 15.8253 83.3881 15.9301C83.0728 15.9825 82.7576 16.0349 82.4423 16.0349C82.127 15.9825 81.8643 15.9825 81.7067 15.9301C81.549 15.8777 81.3914 15.8253 81.2863 15.7205Z" fill="white"/>
<path d="M70.6724 16.3493C70.6198 16.3493 70.5673 16.2969 70.4096 16.2969C70.252 16.2445 70.1469 16.1921 70.0944 16.1397C70.0418 16.0873 69.9893 15.9825 69.9367 15.8253C69.9367 15.6681 69.8842 15.5109 69.8842 15.3013V11.6856H71.1978C71.8809 11.6856 72.5114 11.6332 73.142 11.5284C73.7725 11.4236 74.2979 11.214 74.7708 10.952C75.2437 10.6375 75.6115 10.2707 75.8743 9.69431C76.137 9.1703 76.2946 8.43667 76.2946 7.54584C76.2946 6.70741 76.137 6.02619 75.9268 5.55457C75.6641 5.08296 75.2963 4.66374 74.8759 4.40174C74.4556 4.13973 73.9301 3.98252 73.3521 3.93012C72.7741 3.87772 72.1961 3.82532 71.5656 3.82532H66.4163V4.24453C66.4688 4.24453 66.5214 4.29693 66.679 4.29693C66.8366 4.34933 66.9417 4.40174 66.9942 4.45414C67.0468 4.50654 67.0993 4.61134 67.1519 4.76855C67.1519 4.92575 67.2044 5.08296 67.2044 5.29257V15.2489C67.2044 15.4585 67.2044 15.6681 67.1519 15.7729C67.1519 15.9301 67.0993 16.0349 66.9942 16.0873C66.9417 16.1397 66.8366 16.2445 66.679 16.2445C66.5214 16.2969 66.4688 16.2969 66.4163 16.2969V16.7161H70.6724V16.3493ZM69.9367 5.29257C69.9367 5.18776 69.9367 5.08296 69.9893 4.97816C69.9893 4.87335 70.0418 4.82095 70.0944 4.76855C70.1469 4.71615 70.252 4.66374 70.4096 4.66374C70.5673 4.66374 70.7249 4.61134 70.9876 4.61134C71.3029 4.61134 71.6182 4.66375 71.9334 4.71615C72.2487 4.82095 72.4589 4.97816 72.7216 5.18776C72.9318 5.39737 73.0894 5.71178 73.247 6.07859C73.3521 6.4454 73.4047 6.91702 73.4047 7.44104C73.4047 8.54147 73.247 9.3799 72.9318 9.95632C72.6165 10.5327 72.0385 10.8472 71.2504 10.8472H69.9367V5.29257Z" fill="white"/>
<path d="M64.6823 13.7816H63.8415C63.7365 14.3057 63.6314 14.6725 63.5263 14.9869C63.4212 15.3013 63.3161 15.5109 63.1059 15.6681C62.9483 15.8253 62.6856 15.9301 62.3703 15.9301C62.055 15.9825 61.6347 15.9825 61.0567 15.9825C60.5312 15.9825 60.1109 15.9825 59.8482 15.9301C59.5329 15.8777 59.3227 15.8253 59.1651 15.7205C59.0075 15.6157 58.9024 15.4585 58.9024 15.3013C58.8498 15.0917 58.8498 14.8821 58.8498 14.5677V10.4803H60.5838C60.7414 10.4803 60.8991 10.4803 61.1092 10.4803C61.3194 10.4803 61.5296 10.5327 61.7398 10.5327C61.9499 10.5327 62.1601 10.5851 62.3703 10.6375C62.5805 10.6899 62.7381 10.7423 62.8957 10.8472V9.1703C62.7381 9.2751 62.5805 9.3275 62.3703 9.3799C62.1601 9.4323 61.9499 9.48471 61.7398 9.48471C61.5296 9.53711 61.3194 9.53711 61.1092 9.53711C60.8991 9.53711 60.7414 9.53711 60.5838 9.53711H58.8498V5.24016C58.8498 4.97816 58.9024 4.76855 58.9549 4.66374C59.06 4.55894 59.2176 4.55894 59.4804 4.55894H60.8991C61.372 4.55894 61.7923 4.55894 62.1076 4.61134C62.4228 4.66374 62.6856 4.71615 62.8432 4.87335C63.0534 5.03056 63.211 5.24016 63.3161 5.50217C63.4212 5.76418 63.5788 6.13099 63.6839 6.60261H64.367V3.82532H55.3293V4.24453C55.3819 4.24453 55.4344 4.29693 55.5921 4.29693C55.7497 4.34933 55.8548 4.40174 55.9073 4.45414C55.9599 4.50654 56.0124 4.61134 56.065 4.76855C56.065 4.92575 56.1175 5.08296 56.1175 5.29257V15.2489C56.1175 15.4585 56.1175 15.6681 56.065 15.7729C56.065 15.9301 56.0124 16.0349 55.9073 16.0873C55.8548 16.1397 55.7497 16.2445 55.5921 16.2445C55.4344 16.2969 55.3819 16.2969 55.3293 16.2969V16.7161H64.6823V13.7816Z" fill="white"/>
<path d="M50.3902 16.6637C51.0207 16.6113 51.6512 16.4017 52.1241 16.1397C52.6496 15.8253 53.0699 15.4061 53.3852 14.8297C53.7005 14.2533 53.8581 13.4672 53.8581 12.4716C53.8581 11.738 53.753 11.1616 53.5428 10.6375C53.3326 10.1135 53.0174 9.74671 52.5445 9.3799C52.0716 9.06549 51.4936 8.85589 50.758 8.69868C50.0223 8.54147 49.1291 8.48907 48.0782 8.48907H46.9748V5.39737C46.9748 5.08296 47.0273 4.87335 47.1849 4.76855C47.3426 4.66375 47.6053 4.66374 48.0257 4.66374H49.602C50.0749 4.66374 50.4952 4.66375 50.8105 4.71615C51.1258 4.76855 51.3885 4.82095 51.5461 4.97816C51.7563 5.13536 51.9139 5.34497 52.019 5.60698C52.1241 5.86899 52.2817 6.2358 52.3868 6.70741H53.0699V3.82532H43.4017V4.24453C43.4543 4.24453 43.5068 4.29693 43.6645 4.29693C43.8221 4.34933 43.9272 4.40174 43.9797 4.45414C44.0323 4.50654 44.0848 4.61134 44.1374 4.76855C44.1374 4.92575 44.1899 5.08296 44.1899 5.29257V14.5153C44.1899 14.5153 44.1899 14.5153 44.1899 14.5677V15.2489C44.1899 15.4585 44.1899 15.6157 44.1374 15.7729C44.1374 15.9301 44.0848 16.0349 43.9797 16.0873C43.9272 16.1397 43.8221 16.2445 43.6645 16.2445C43.5068 16.2969 43.4543 16.2969 43.4017 16.2969V16.7685H48.2884C49.0765 16.7685 49.7071 16.7685 50.3902 16.6637ZM47.1849 15.7205C47.0798 15.6157 47.0273 15.5109 47.0273 15.3537C47.0273 15.1965 46.9748 14.9869 46.9748 14.7249V9.2751H48.0782C49.0765 9.2751 49.8122 9.53711 50.2325 10.0611C50.6529 10.5851 50.8631 11.4236 50.8631 12.5764C50.8631 13.3624 50.8105 13.9389 50.6529 14.4105C50.4952 14.8821 50.3376 15.1965 50.0749 15.4585C49.8122 15.6681 49.5494 15.8253 49.2867 15.9301C48.9715 15.9825 48.6562 16.0349 48.3409 16.0349C48.0257 15.9825 47.8155 15.9825 47.6053 15.9301C47.4477 15.8777 47.29 15.8253 47.1849 15.7205Z" fill="white"/>
<path d="M126.895 20.4366H31.6318V21.6943H126.895V20.4366Z" fill="white"/>
<path d="M119.276 11.8952C119.539 12.2621 119.749 12.5765 120.012 12.8909C120.222 13.2053 120.484 13.5197 120.695 13.8341C120.905 14.1485 121.115 14.4629 121.378 14.7773C121.64 15.1441 121.851 15.4586 122.061 15.8254C122.271 16.1398 122.429 16.5066 122.586 16.821L127 16.8734C126.527 16.4018 126.107 15.9302 125.634 15.4586C125.213 14.9869 124.846 14.5677 124.583 14.3057C124.163 13.8341 123.795 13.4149 123.48 13.0481C123.112 12.6289 122.796 12.2621 122.481 11.8952C122.166 11.5284 121.851 11.1092 121.588 10.7424C121.325 10.3756 121.01 9.90398 120.747 9.48476L120.957 9.22275C121.273 8.80354 121.64 8.38432 122.061 7.86031C122.481 7.33629 122.902 6.81227 123.374 6.34066C123.847 5.81664 124.268 5.34502 124.741 4.92581C125.213 4.5066 125.581 4.19218 125.949 3.93018H122.902C122.796 4.19218 122.639 4.5066 122.429 4.87341C122.218 5.24022 122.008 5.65943 121.693 6.07865C121.43 6.49786 121.115 6.96948 120.852 7.44109C120.537 7.91271 120.274 8.33192 119.959 8.75114C119.644 9.17035 119.381 9.58956 119.118 9.90397C118.856 10.2708 118.645 10.5328 118.488 10.7948C118.751 11.1616 119.013 11.5284 119.276 11.8952Z" fill="white"/>
<path d="M118.908 16.3493C118.856 16.3493 118.803 16.2969 118.645 16.2969C118.488 16.2445 118.383 16.1921 118.33 16.1397C118.278 16.0873 118.225 15.9825 118.173 15.8253C118.173 15.6681 118.12 15.5109 118.12 15.3013V5.34497C118.12 5.13536 118.12 4.92575 118.173 4.82095C118.173 4.66375 118.225 4.55894 118.33 4.50654C118.383 4.45414 118.488 4.40174 118.645 4.34933C118.803 4.29693 118.856 4.29693 118.908 4.29693V3.82532H114.652V4.24453C114.705 4.24453 114.757 4.29693 114.915 4.29693C115.072 4.34933 115.177 4.40174 115.23 4.45414C115.283 4.50654 115.335 4.61134 115.388 4.76855C115.388 4.92575 115.44 5.08296 115.44 5.29257V15.2489C115.44 15.4585 115.44 15.6681 115.388 15.7729C115.388 15.9301 115.335 16.0349 115.23 16.0873C115.177 16.1397 115.072 16.2445 114.915 16.2445C114.757 16.2969 114.705 16.2969 114.652 16.2969V16.7161H118.908V16.3493Z" fill="white"/>
<path d="M90.6392 15.1965C90.7969 14.4628 91.1121 13.4148 91.5325 12.1048H95.6835L96.2615 13.7816C96.5242 14.5152 96.7344 15.1441 96.8395 15.6681C96.9971 16.1921 97.1022 16.5589 97.1022 16.8209H100.413C100.255 16.5589 100.097 16.1921 99.8871 15.7729C99.6769 15.3537 99.4142 14.7248 99.1515 13.9388L96.1564 5.44974C95.9988 5.08293 95.9462 4.76852 95.8937 4.50651C95.8411 4.2445 95.8411 4.03489 95.7886 3.87769H92.0579V4.2969C92.1105 4.2969 92.163 4.3493 92.3207 4.3493C92.4783 4.4017 92.5834 4.4541 92.6359 4.50651C92.6885 4.55891 92.741 4.66371 92.7936 4.82092C92.7936 4.92572 92.7936 4.97812 92.7936 5.08293C92.7936 5.39734 92.741 5.71175 92.6359 5.92135L90.5342 11.0567C90.1663 12 89.7985 12.8384 89.5358 13.4672C89.2731 14.096 89.0104 14.6724 88.8527 15.0917C88.6426 15.5109 88.4849 15.8777 88.3273 16.1397C88.1697 16.4017 88.0646 16.6113 87.9595 16.8209H90.324C90.3765 16.4541 90.4816 15.9301 90.6392 15.1965ZM93.6343 5.97375L95.3682 11.2139H91.7952L93.6343 5.97375Z" fill="white"/>
<path d="M105.404 16.3493H105.299C105.247 16.3493 105.194 16.2969 105.036 16.2969C104.879 16.2445 104.774 16.1921 104.721 16.1397C104.669 16.0873 104.616 15.9825 104.564 15.8253C104.564 15.6681 104.511 15.5109 104.511 15.3013V10.3231H109.555V15.2489C109.555 15.4585 109.555 15.6681 109.503 15.7729C109.503 15.9301 109.45 16.0349 109.345 16.0873C109.293 16.1397 109.187 16.2445 109.03 16.2445C108.872 16.2969 108.82 16.2969 108.767 16.2969V16.7161H113.023V16.2969C112.971 16.2969 112.918 16.2445 112.76 16.2445C112.603 16.1921 112.498 16.1397 112.445 16.0873C112.393 16.0349 112.34 15.9301 112.288 15.7729C112.288 15.6157 112.235 15.4585 112.235 15.2489V5.24016C112.235 5.03056 112.235 4.82095 112.288 4.71615C112.288 4.55894 112.34 4.45414 112.445 4.40174C112.498 4.34933 112.603 4.29693 112.76 4.24453C112.918 4.19213 112.971 4.19213 113.023 4.19213V3.82532H108.872V4.24453C108.925 4.24453 108.977 4.29693 109.135 4.29693C109.293 4.34933 109.398 4.40174 109.45 4.45414C109.503 4.50654 109.555 4.61134 109.608 4.76855C109.608 4.92575 109.66 5.08296 109.66 5.29257V9.4323H104.616V5.29257C104.616 5.08296 104.616 4.87335 104.669 4.76855C104.669 4.61134 104.721 4.50654 104.826 4.45414C104.879 4.40174 104.984 4.34933 105.142 4.29693C105.299 4.24453 105.352 4.24453 105.404 4.24453V3.82532H101.148V4.24453C101.201 4.24453 101.253 4.29693 101.411 4.29693C101.568 4.34933 101.674 4.40174 101.726 4.45414C101.779 4.50654 101.831 4.61134 101.884 4.76855C101.884 4.92575 101.936 5.08296 101.936 5.29257V15.3013C101.936 15.5109 101.936 15.6681 101.884 15.8253C101.884 15.9825 101.831 16.0873 101.726 16.1397C101.674 16.1921 101.568 16.2969 101.411 16.2969C101.253 16.3493 101.201 16.3493 101.148 16.3493V16.7685H105.404V16.3493Z" fill="white"/>
<path d="M22.9619 4.66379C22.6992 4.29698 22.4365 3.93017 22.1737 3.56335L7.61892 11.8952L0.577962 7.8603C0.420329 8.33191 0.31524 8.75113 0.262695 9.22274L7.67147 13.4673L22.9619 4.66379Z" fill="white"/>
<path d="M7.61895 15.0393L0.0525445 10.69C0 10.952 0 11.2664 0 11.5284C0 18.393 5.56971 24 12.5056 24C19.3889 24 25.0112 18.4454 25.0112 11.5284C25.0112 9.48474 24.5383 7.54587 23.645 5.86902L7.61895 15.0393Z" fill="white"/>
<path d="M21.1754 2.51525C20.8076 2.14844 20.4398 1.88643 20.072 1.57202L7.61896 8.75106L1.62889 5.34495C1.41871 5.71176 1.20853 6.13097 0.998352 6.55019L7.56641 10.3231L21.1754 2.51525Z" fill="white"/>
<path d="M18.8109 0.733625C18.338 0.471616 17.8651 0.209607 17.3397 0L7.61895 5.60699L3.25776 3.1441C2.94249 3.45852 2.67977 3.82533 2.3645 4.19214L7.5664 7.17904L18.8109 0.733625Z" fill="white"/>
</g>
</svg>
