<svg width="99" height="30" viewBox="0 0 99 30" fill="none" xmlns="http://www.w3.org/2000/svg">
<g>
<path d="M15.208 20.0972C15.1659 20.0972 15.0817 20.1388 15.0817 20.1804C15.0817 20.222 15.1238 20.3052 15.1659 20.3052C15.208 20.3052 15.2923 20.2636 15.2923 20.222C15.3344 20.1388 15.2923 20.0972 15.208 20.0972Z" fill="white"/>
<path d="M22.0749 26.921L21.4851 26.6714L21.6536 26.0888L21.8221 25.4231C21.8221 25.4231 20.811 25.964 19.3366 26.3801C18.9153 26.5049 18.6204 26.5465 18.6204 26.5465V27.0458C18.6204 27.0458 17.8621 27.1707 17.0617 27.1707C16.2612 27.1707 15.5029 27.0458 15.5029 27.0458V26.5881C15.5029 26.5881 15.2081 26.5465 14.7868 26.4217C13.3123 26.0056 12.3012 25.4647 12.3012 25.4647L12.4698 26.1304L12.6383 26.713L12.0485 26.921L11.4166 27.1707C12.1749 27.5452 13.1859 28.0445 14.1127 28.2941L13.9021 28.8766C13.9021 28.8766 15.0817 29.4175 17.1038 29.4175C19.0838 29.4175 20.3055 28.8766 20.3055 28.8766L20.0949 28.2941C21.0217 28.0445 22.0749 27.5035 22.791 27.1707L22.0749 26.921ZM12.0485 27.1707L13.0174 26.8378L12.7225 25.9224C13.1438 26.1721 14.0706 26.5049 14.6183 26.6714L14.1549 27.9196C13.3123 27.7532 12.6383 27.4619 12.0485 27.1707ZM17.0195 29.0847C15.9242 29.0847 14.6183 28.835 14.2812 28.7102L14.8289 27.1707C15.2923 27.2955 16.2612 27.4619 16.9774 27.4619H17.0195C17.7357 27.4619 18.7047 27.3371 19.1681 27.1707L19.8 28.7102C19.4208 28.835 18.157 29.0847 17.0195 29.0847ZM19.9264 27.9612L19.4629 26.713C20.0106 26.5465 20.9374 26.1721 21.4008 25.964L21.0638 26.8794L22.0327 27.2123C21.4429 27.4619 20.7689 27.7532 19.9264 27.9612Z" fill="white"/>
<path d="M17.0196 3.20377C18.1991 3.20377 19.1681 3.57825 19.6736 3.99434C19.6736 3.99434 19.8421 3.07894 20.3476 2.24677L19.3787 2.37159L18.8732 1.33137L17.9042 1.83068L16.9774 0.915283L16.0506 1.83068L15.1659 1.33137L14.6604 2.37159L13.6915 2.24677C14.2391 3.07894 14.3655 3.99434 14.3655 3.99434C14.9132 3.57825 15.84 3.20377 17.0196 3.20377ZM14.6183 2.74607L14.871 2.78768L14.9974 2.53803L15.3344 1.83068L15.9664 2.16355L16.2191 2.28838L16.3876 2.08033L17.0617 1.41459L17.6936 2.08033L17.9042 2.24677L18.157 2.12194L18.7889 1.78907L19.1259 2.49642L19.2523 2.74607L19.5051 2.70446L19.7579 2.66286C19.6315 2.91251 19.5472 3.16216 19.5051 3.37021C18.831 2.99573 17.9885 2.78768 17.0617 2.78768C16.177 2.78768 15.2923 2.99573 14.6604 3.37021C14.6183 3.16216 14.534 2.91251 14.4076 2.66286L14.6183 2.74607Z" fill="white"/>
<path d="M30.9217 15.4785C32.4383 15.4785 32.986 13.939 32.986 13.8558L33.1545 13.3149H32.5647C32.3541 13.3149 30.669 13.2733 29.4894 11.7753L29.4051 11.6505C28.6047 10.6519 27.8885 9.73651 26.5405 9.32042C26.5826 9.27881 26.6247 9.23721 26.709 9.1956C27.4251 8.7379 27.8043 8.19698 27.9307 7.53124C28.0992 6.57424 27.4673 5.78367 27.4251 5.74206L27.0039 5.20114L26.7511 5.82528C26.7511 5.86689 26.2877 6.8655 25.3609 6.8655H25.2766C25.1924 6.8655 25.1502 6.8655 25.1081 6.8655C25.1502 6.4078 25.066 5.74206 24.4341 5.11793C23.6758 4.32736 22.749 4.24414 22.2856 4.24414C22.0328 4.24414 21.8643 4.28575 21.8222 4.28575L21.1902 4.41058L21.5694 4.90988C21.8643 5.32597 22.1592 6.03332 21.8222 6.44941C21.6958 6.57424 21.4851 6.65746 21.2745 6.78228C20.8532 6.99033 20.2634 7.23998 20.2634 7.94733C20.2634 8.40503 20.6004 8.86273 21.2745 9.27881C23.1702 10.4439 24.3498 11.6921 24.8553 13.0652C25.6558 15.1457 24.6026 16.3523 23.6336 16.9765L23.1702 17.2677L23.5494 17.6422C23.5915 17.6838 24.097 18.0999 24.7711 18.1831C24.8975 18.1831 25.0239 18.1831 25.1502 18.1831C25.6136 18.1831 25.9928 18.0999 26.2877 18.0167C26.2034 18.1831 26.077 18.3079 25.9507 18.4744C25.3609 19.1401 24.6868 19.4314 23.6758 19.4314H23.2966L23.2545 19.8059C23.2545 19.8891 23.2124 20.5548 23.8864 21.1373C23.9707 21.2206 24.097 21.3038 24.2234 21.3454C23.76 21.7615 23.3387 22.4272 23.2545 23.6339C23.1702 24.6325 22.9596 25.007 22.9175 25.007L22.4962 25.6311H23.2545C24.4762 25.6311 25.4451 25.2982 26.077 24.6325C26.4562 24.258 26.6668 23.8003 26.8353 23.3842C27.046 23.5507 27.3409 23.7171 27.6779 23.8003C27.8043 23.8419 27.9728 23.8419 28.1413 23.8419C28.4783 23.8419 28.7732 23.7587 28.8153 23.7587L29.2787 23.6339L29.0681 23.1762C29.0681 23.1346 28.6468 22.2608 29.0681 21.0125C29.2366 20.4716 29.363 19.9723 29.4051 19.5978C29.7 19.7643 30.1213 19.8891 30.6268 19.8891C31.8064 19.8891 32.3119 19.0153 32.3541 18.9737L32.6068 18.5576L32.1856 18.3912C30.7953 17.8086 30.4583 16.2691 30.4162 15.4369C30.5426 15.4785 30.669 15.4785 30.8375 15.4785H30.9217ZM32.0592 18.7656C32.0592 18.7656 31.6379 19.473 30.7111 19.473C29.5736 19.473 29.1102 18.7656 29.1102 18.7656C29.1102 18.7656 29.1945 19.6394 28.7732 20.8461C28.2677 22.3024 28.7732 23.3426 28.7732 23.3426C28.7732 23.3426 28.5205 23.4258 28.1834 23.4258C28.057 23.4258 27.9307 23.4258 27.8464 23.3842C26.8775 23.1762 26.6668 22.3024 26.6668 22.3024C26.6668 22.3024 26.7511 25.1734 23.3387 25.1734H23.2966C23.2966 25.1734 23.5915 24.7573 23.6758 23.5923C23.8443 21.4702 25.3187 21.179 25.3187 21.179C25.3187 21.179 24.5183 21.0957 24.1813 20.7629C23.6336 20.3052 23.6758 19.7226 23.6758 19.7226C24.8553 19.7226 25.6558 19.3066 26.2456 18.6408C26.8775 17.8919 27.0039 17.1013 27.0039 17.1013C27.0039 17.1013 26.3719 17.6838 25.1081 17.6838C24.9817 17.6838 24.8975 17.6838 24.7711 17.6838C24.1813 17.6422 23.76 17.2677 23.76 17.2677C25.066 16.4355 25.9507 15.0208 25.1502 12.8572C24.5183 11.1096 22.9596 9.81973 21.4009 8.86273C20.9375 8.57146 20.6426 8.19698 20.6426 7.90572C20.6426 7.19837 21.6958 7.15676 22.117 6.65746C22.6226 6.07493 22.2856 5.15954 21.8643 4.61862C21.8643 4.61862 21.9907 4.57701 22.2434 4.57701C22.7068 4.57701 23.4651 4.70184 24.097 5.32597C24.9396 6.19976 24.6026 7.15676 24.6026 7.15676L24.8132 7.19837C24.9396 7.23998 25.066 7.23998 25.2345 7.23998C25.2766 7.23998 25.2766 7.23998 25.3187 7.23998C26.5405 7.23998 27.0881 5.9501 27.0881 5.9501C27.0881 5.9501 28.3941 7.53124 26.4562 8.77951C26.1192 8.98755 25.9928 9.1956 26.0349 9.40364L26.077 9.52847L26.2034 9.57008C27.5936 9.94456 28.3098 10.9016 29.1945 11.9834C30.5005 13.6477 32.3541 13.6894 32.6068 13.6894H32.649C32.649 13.6894 32.2277 15.0208 30.9639 15.0208H30.9217C30.3319 15.0208 30.037 14.7712 30.037 14.7712C30.037 14.7712 29.7843 17.8502 32.0592 18.7656Z" fill="white"/>
<path d="M28.2676 9.48679C28.8574 9.77805 29.1523 10.1941 29.4472 10.5686C29.7421 10.9015 29.9949 11.2344 30.4162 11.4008C30.5847 11.4424 30.7111 11.484 30.8796 11.484C31.5115 11.484 32.1434 11.1095 32.3962 10.5686L32.6489 10.0277L32.0591 9.9861C32.017 9.9861 31.2587 9.90288 30.4162 9.0707C30.0791 8.73783 29.6579 8.52979 29.1945 8.52979C28.6468 8.52979 28.2255 8.82105 28.1834 8.82105L27.6779 9.15392L28.2676 9.48679ZM29.2366 8.86266C29.5315 8.86266 29.8685 8.94587 30.1634 9.27874C31.1323 10.2774 32.0591 10.319 32.0591 10.319C31.8906 10.6934 31.4272 10.9847 30.9217 10.9847C30.7953 10.9847 30.6689 10.9847 30.5847 10.9431C29.9106 10.7351 29.6579 9.69483 28.4783 9.0707C28.4362 9.11231 28.7732 8.86266 29.2366 8.86266Z" fill="white"/>
<path d="M28.5204 14.8126C28.1834 12.108 26.1613 10.1108 23.9285 8.90416C23.7179 8.77934 23.5494 8.69612 23.3387 8.6129C24.0128 8.73773 25.1081 8.73773 25.9507 7.98877C25.9507 7.98877 24.6447 8.94577 21.9907 8.07199C22.7068 8.52968 24.1392 9.19543 25.4451 10.2773C28.7311 13.1067 26.3719 15.8945 26.3719 15.8945C27.5515 14.6878 27.5936 13.3979 27.2566 12.3161C27.8885 13.3147 28.2677 14.563 28.2256 16.1025C28.1413 18.2662 26.9196 20.1802 25.6558 21.6781C25.0239 22.427 24.8975 23.3008 24.8975 23.3008C24.8975 23.3008 25.1502 22.5103 25.8664 21.6781C27.2145 20.097 28.3941 18.4742 28.5626 16.1025C28.689 16.5186 29.2787 17.7252 30.2056 18.1829C30.2056 18.1829 29.026 17.5172 28.5204 14.8126Z" fill="white"/>
<path d="M11.1217 24.9652C11.1217 24.9652 10.8689 24.5907 10.8268 23.5921C10.7425 22.3855 10.2791 21.7197 9.81571 21.3036C9.94209 21.262 10.0685 21.1788 10.1527 21.0956C10.8268 20.5131 10.7846 19.8057 10.7846 19.7641L10.7425 19.3896H10.3634C9.35231 19.3896 8.63613 19.0568 8.08848 18.4326C7.96209 18.2662 7.83571 18.1414 7.75145 17.9749C8.04635 18.0581 8.46762 18.1414 8.8889 18.1414C9.01528 18.1414 9.14167 18.1414 9.26805 18.1414C9.98422 18.0998 10.4476 17.6837 10.4898 17.6004L10.8689 17.226L10.4055 16.9347C9.39443 16.3106 8.38337 15.1039 9.18379 13.0235C9.68933 11.6504 10.8689 10.4021 12.7646 9.23707C13.3966 8.82098 13.7757 8.36328 13.7757 7.90558C13.7757 7.19823 13.1859 6.94858 12.7646 6.74053C12.554 6.65732 12.3434 6.53249 12.217 6.40766C11.88 6.03318 12.1749 5.28422 12.4698 4.86813L12.8489 4.36883L12.217 4.244C12.217 4.244 12.0485 4.20239 11.7536 4.20239C11.2902 4.20239 10.3634 4.32722 9.60507 5.07618C8.97316 5.70031 8.8889 6.40766 8.93103 6.82375C8.8889 6.82375 8.80464 6.82375 8.76252 6.82375H8.67826C7.75145 6.82375 7.28805 5.82514 7.28805 5.78353L7.03528 5.1594L6.61401 5.70031C6.57188 5.74192 5.93996 6.49088 6.10847 7.48949C6.19273 8.15524 6.61401 8.69615 7.33018 9.15385C7.41443 9.19546 7.45656 9.23707 7.49869 9.27867C6.1506 9.69476 5.43443 10.6518 4.63401 11.6088L4.50762 11.7336C3.37018 13.3147 1.68507 13.3563 1.47443 13.3563H0.884644L1.05315 13.8973C1.05315 13.9805 1.60081 15.52 3.11741 15.52H3.20167C3.37018 15.52 3.49656 15.4784 3.62294 15.4784C3.53869 16.3106 3.24379 17.8501 1.85358 18.4326L1.4323 18.5991L1.68507 19.0152C1.68507 19.0152 2.1906 19.8889 3.37018 19.8889C3.87571 19.8889 4.29698 19.7641 4.59188 19.5977C4.63401 19.9722 4.71826 20.4715 4.9289 21.0124C5.35018 22.2606 4.97103 23.176 4.9289 23.176L4.71826 23.6337L5.18167 23.7586C5.22379 23.7586 5.51869 23.8418 5.85571 23.8418C6.02422 23.8418 6.1506 23.8418 6.31911 23.8002C6.69826 23.717 6.95103 23.5505 7.16167 23.3841C7.28805 23.7586 7.49869 24.2163 7.91996 24.6323C8.59401 25.2981 9.52082 25.631 10.7425 25.631H11.5008L11.1217 24.9652ZM10.7425 25.1733C7.33018 25.1733 7.41443 22.3023 7.41443 22.3023C7.41443 22.3023 7.16167 23.176 6.23486 23.3841C6.10847 23.4257 5.98209 23.4257 5.89784 23.4257C5.60294 23.4257 5.30805 23.3425 5.30805 23.3425C5.30805 23.3425 5.81358 22.3023 5.30805 20.8459C4.88677 19.6393 4.97103 18.7655 4.97103 18.7655C4.97103 18.7655 4.50762 19.4312 3.37018 19.4728C2.44337 19.4728 2.02209 18.7655 2.02209 18.7655C4.29698 17.8501 4.08635 14.8127 4.08635 14.8127C4.08635 14.8127 3.79145 15.0207 3.20167 15.0623H3.15954C1.89571 15.0623 1.47443 13.7308 1.47443 13.7308H1.51656C1.7272 13.7308 3.62294 13.6892 4.9289 12.0249C5.81358 10.943 6.48762 9.98603 7.91996 9.61155L8.04635 9.56994L8.08848 9.44511C8.1306 9.23707 7.96209 9.02902 7.6672 8.82098C5.72933 7.57271 7.03528 5.99157 7.03528 5.99157C7.03528 5.99157 7.58294 7.28145 8.80465 7.28145C8.84677 7.28145 8.84677 7.28145 8.8889 7.28145C9.01528 7.28145 9.18379 7.28145 9.31018 7.23984L9.52082 7.19823C9.52082 7.19823 9.18379 6.24123 10.0263 5.36744C10.6583 4.7017 11.4587 4.61848 11.88 4.61848C12.0906 4.61848 12.2591 4.66009 12.2591 4.66009C11.8378 5.20101 11.5429 6.1164 12.0063 6.69893C12.4276 7.19823 13.4808 7.19823 13.4808 7.94719C13.4808 8.23845 13.1859 8.61293 12.6804 8.9458C11.1217 9.90281 9.56294 11.1927 8.93103 12.9403C8.1306 15.1039 9.01528 16.5186 10.3212 17.3508C10.3212 17.3508 9.89996 17.7253 9.31018 17.7669C9.18379 17.7669 9.05741 17.7669 8.97316 17.7669C7.70933 17.7669 7.07741 17.1844 7.07741 17.1844C7.07741 17.1844 7.20379 17.9749 7.83571 18.7239C8.4255 19.3896 9.22592 19.8057 10.4055 19.8057C10.4055 19.8057 10.4476 20.3466 9.89996 20.8459C9.56294 21.1372 8.76252 21.262 8.76252 21.262C8.76252 21.262 10.237 21.5533 10.4055 23.6753C10.4898 24.7988 10.7846 25.1733 10.7425 25.1733Z" fill="white"/>
<path d="M3.15962 11.4425C3.32813 11.4425 3.49664 11.4009 3.62303 11.3593C4.0443 11.2345 4.3392 10.9016 4.59196 10.5271C4.88686 10.1526 5.22388 9.77816 5.77154 9.44529L6.36132 9.15402L5.81366 8.77954C5.77154 8.73793 5.35026 8.48828 4.8026 8.48828C4.3392 8.48828 3.91792 8.65472 3.5809 9.0292C2.73834 9.90298 1.98005 9.94459 1.93792 9.94459L1.39026 9.9862L1.64302 10.5271C1.89579 11.0264 2.52771 11.4425 3.15962 11.4425ZM3.91792 9.32046C4.21281 8.98759 4.54983 8.90437 4.84473 8.90437C5.266 8.90437 5.60303 9.15402 5.60303 9.15402C4.42345 9.77816 4.17069 10.7768 3.49664 11.0264C3.37026 11.068 3.286 11.068 3.15962 11.068C2.65409 11.068 2.19068 10.7352 2.02217 10.4023C2.02217 10.3607 2.94898 10.2775 3.91792 9.32046Z" fill="white"/>
<path d="M5.85573 16.1025C5.77148 14.563 6.19275 13.3563 6.82467 12.3161C6.48765 13.3563 6.52978 14.6878 7.70935 15.8945C7.70935 15.8945 5.39233 13.1483 8.63616 10.2773C9.94212 9.19543 11.3745 8.52968 12.0906 8.07199C9.43658 8.94577 8.13063 7.98877 8.13063 7.98877C8.97318 8.69612 10.0685 8.69612 10.7425 8.6129C10.574 8.69612 10.3634 8.77934 10.1528 8.90416C7.91999 10.1108 5.89786 12.108 5.56084 14.8126V14.771C5.05531 17.4756 3.87573 18.1413 3.87573 18.1413C4.80254 17.6836 5.39233 16.5186 5.51871 16.0609C5.68722 18.4326 6.82467 20.0553 8.21488 21.6365C8.93105 22.4687 9.18382 23.2592 9.18382 23.2592C9.18382 23.2592 9.05744 22.3438 8.42552 21.6365C7.16169 20.1802 5.93999 18.3078 5.85573 16.1025Z" fill="white"/>
<path d="M16.2613 10.5686V11.1095C16.4719 10.9015 16.809 10.9431 16.809 10.9431V11.7337C16.809 11.7337 16.809 12.1081 16.6404 12.2746H17.0196H17.3987C17.2724 12.1081 17.2302 11.7337 17.2302 11.7337V10.9431C17.2302 10.9431 17.6094 10.9015 17.7779 11.1095V10.5686H16.9775H16.2613Z" fill="white"/>
<path d="M15.9243 7.36482C16.177 7.57286 16.3455 7.61447 16.3455 7.61447L16.4298 7.65608V7.15678L15.503 6.7823C15.503 6.74069 15.503 7.03195 15.9243 7.36482Z" fill="white"/>
<path d="M18.1571 7.36461C18.5784 7.03174 18.5784 6.74048 18.5784 6.74048L17.6516 7.11496V7.61426L17.7358 7.57266C17.7358 7.57266 17.9043 7.53105 18.1571 7.36461Z" fill="white"/>
<path d="M19.842 5.28419C19.842 4.49362 18.5361 3.82788 17.0616 3.82788C15.5871 3.82788 14.2812 4.53523 14.2812 5.28419L14.3233 5.49224L14.9131 8.82095L14.3233 9.15382L12.7646 9.98599C12.7646 9.98599 12.4276 10.1524 12.2591 10.2773C11.6693 10.6933 11.5429 11.2343 11.8799 11.4839C11.9642 11.0262 12.3433 10.5269 13.0595 10.5269C13.565 10.5269 13.9442 10.7766 14.2812 11.1927C14.3654 11.2759 14.4497 11.4007 14.4918 11.5255C14.5761 11.6504 14.6603 11.7752 14.7446 11.9H10.8267C11.1216 12.4825 11.3744 13.0651 11.3744 13.7308V22.2606C11.3744 24.3411 12.9752 25.2981 14.7446 25.2981C16.0927 25.2981 16.2612 25.2565 17.0195 25.9638C17.7778 25.2148 17.9463 25.2981 19.2944 25.2981C21.0216 25.2981 22.6646 24.2994 22.6646 22.2606V13.6892C22.6646 13.0234 22.9174 12.4409 23.2123 11.8584H19.2944C19.3786 11.7336 19.4629 11.6087 19.5471 11.4839C19.6314 11.3591 19.7157 11.2759 19.7578 11.151C20.0527 10.7766 20.474 10.4853 20.9795 10.4853C21.6957 10.4853 22.0748 10.9846 22.1591 11.4423C22.4961 11.1927 22.3697 10.6101 21.7799 10.2356C21.6114 10.1108 21.2744 9.94439 21.2744 9.94439L19.7999 9.11221L19.2101 8.77934L19.7999 5.45063L19.842 5.28419ZM14.8288 5.65867L16.8931 6.36602V9.56991L15.3765 8.73773L14.8288 5.65867ZM15.2501 12.3993C15.5871 12.7322 15.9242 12.9402 16.2191 13.0651C16.1769 13.2315 16.1348 13.5644 16.2612 13.8972C16.3876 14.1469 16.5982 14.3549 16.9352 14.5214C16.9774 14.8542 17.188 15.3535 17.7778 15.5616C17.525 15.8112 17.2723 16.0609 17.188 16.1441L14.8288 16.1025C14.7867 16.0609 14.7025 16.0193 14.6603 15.9361C14.6603 15.9361 14.6603 15.9361 14.6603 15.8945L15.0395 15.9361C15.0395 15.9361 15.0395 15.9361 15.0816 15.9361C15.1659 15.9361 15.208 15.8945 15.2501 15.8112C15.2501 15.728 15.208 15.6448 15.1237 15.6448L14.6603 15.5616L15.1659 13.7724L14.6603 12.7322L13.8599 13.5644L13.8178 15.4368L13.2701 15.3535C13.1859 15.3535 13.1016 15.3951 13.1016 15.4784C13.1016 15.5616 13.1437 15.6448 13.228 15.6448L13.4386 15.6864C13.3544 15.728 13.3123 15.7696 13.3123 15.7696L13.228 15.8112V15.8528C13.1016 16.3938 13.3965 16.8515 13.6914 17.1011V17.1843C13.6914 17.2675 13.6914 17.3508 13.7335 17.3924C13.7757 17.4756 13.8599 17.5172 13.9442 17.5172H13.9863C14.1127 17.5172 14.2391 17.434 14.2812 17.2675C14.4076 17.2675 14.4918 17.2675 14.5761 17.2675H14.6182L17.6935 17.8085L17.7357 17.7669C17.9884 17.6004 18.9152 16.9347 19.2101 16.685C19.2944 16.7682 19.3786 16.8098 19.505 16.8931C19.4208 17.2259 19.3786 17.7252 19.7999 18.1413H11.9642V13.6892C11.9642 13.2731 11.8378 12.8154 11.6693 12.3993H15.2501ZM19.0416 16.5186C18.7467 16.7266 17.9463 17.3092 17.6514 17.5172L14.8288 17.0179C14.8288 16.9763 14.8288 16.9763 14.8288 16.9347C14.871 16.8099 14.9131 16.6018 14.9131 16.3522L17.2723 16.3938L17.3144 16.3522C17.3565 16.3105 18.1148 15.6032 18.494 15.1871C18.5782 15.3119 18.7046 15.3951 18.831 15.52C18.831 15.8112 18.831 16.1857 19.0416 16.5186ZM14.3654 16.0193C14.4497 16.1441 14.534 16.2273 14.6182 16.3105C14.6182 16.4354 14.6182 16.6434 14.5761 16.8099C14.5761 16.8515 14.5761 16.8931 14.534 16.9347C14.534 16.9763 14.534 16.9763 14.534 16.9763C14.4076 16.9763 14.1548 16.9763 13.9863 16.8931C13.7757 16.8098 13.4386 16.3938 13.5229 15.9777C13.6071 15.9361 13.8599 15.8112 14.0284 15.8112C14.1969 15.8112 14.2812 15.8528 14.3654 16.0193ZM14.0706 15.4784L14.1127 13.6892L14.534 13.2731L14.7867 13.814L14.2812 15.52L14.0706 15.4784ZM19.0416 24.7155C18.8731 24.7155 18.7467 24.7155 18.6203 24.7155L18.9574 23.7169C18.9995 23.5921 18.7467 23.3841 18.6203 23.2176C18.7889 23.3008 19.2101 23.5505 19.4208 23.6337C19.3786 23.6753 19.0416 24.7155 19.0416 24.7155ZM20.0948 23.5505L19.8842 24.6739C19.7578 24.6739 19.5893 24.7155 19.4629 24.7155L19.6735 23.6337C19.7578 23.3008 18.8731 23.2176 18.4518 22.5935C18.2412 22.8431 17.862 22.8847 17.4408 22.8847C17.0616 22.8847 16.7246 22.8431 16.514 22.8015C16.4718 22.8015 16.3876 22.8015 16.3454 22.8015C16.2191 22.8015 16.0927 22.8431 16.0084 22.968L15.9242 23.0928L14.7446 22.7599L14.4497 23.2592C14.4076 23.3424 14.4076 23.3841 14.4918 23.4673L14.5761 23.5505C14.534 23.7169 14.2812 23.9666 14.2812 23.9666L14.1127 23.7585C13.9863 23.5921 13.9863 23.3008 14.1548 23.0512L14.6182 22.2606L15.6293 22.3854L15.4608 22.0526C15.2501 21.5949 15.5871 21.0123 15.5871 20.6379C15.5871 20.7211 15.4608 20.7627 15.3765 20.7627C15.2923 20.7627 15.1659 20.7627 15.0816 20.7627C15.0395 20.7627 15.0395 20.7627 14.9974 20.7627L14.7446 20.9291L14.534 20.7211C14.4918 20.6795 14.4918 20.5963 14.5761 20.5547L15.0816 20.0137L14.4918 19.348L15.3344 19.7641L15.5871 19.4728C15.6714 19.556 15.6293 19.7225 15.6293 19.7225C15.882 19.7225 16.5982 20.1386 16.6403 21.054C16.6403 21.0956 16.6403 21.0956 16.6403 21.1372C16.6403 21.1372 16.6403 21.1372 16.6403 21.1788C16.6825 21.262 16.851 21.4284 17.0195 21.4284L18.1569 21.5533C18.2833 21.5533 18.5361 21.4284 18.831 21.4284C18.9995 21.4284 19.2101 21.47 19.4208 21.5949C19.4208 21.5949 19.505 21.5117 19.6735 21.5117H19.7157C20.2212 21.5117 20.4318 21.9694 20.7267 22.3438C20.9374 22.6351 21.1901 23.0512 21.1901 23.0512C21.1059 23.176 20.9795 23.2176 20.8531 23.2176C20.811 23.2176 20.7689 23.2176 20.7267 23.2176C20.1791 23.1344 20.0948 22.011 19.7999 21.9277H19.7578C19.6735 21.9277 19.6314 22.011 19.6314 22.011C19.7578 22.3854 19.6735 22.5519 19.842 22.8431C19.9684 23.0512 20.1791 23.2176 20.2633 23.3424C20.1369 23.2592 20.0948 23.4257 20.0948 23.5505ZM13.9442 22.5103L13.9863 22.6351C13.9442 22.7599 13.565 22.9264 13.565 22.9264L13.4808 22.7183C13.3965 22.5103 13.3965 22.1774 13.6914 21.9694L14.3233 21.5949L14.9974 21.7197C14.9974 21.9277 15.1237 22.0942 15.1237 22.0942L14.4076 21.9694L13.9863 22.2606C13.9442 22.3022 13.9442 22.427 13.9442 22.5103ZM20.1791 24.6323L20.3897 23.6337C20.3897 23.5921 20.4318 23.5089 20.4318 23.4673C20.474 23.5089 20.5582 23.5089 20.6003 23.5089C20.6846 23.5089 20.7267 23.5089 20.811 23.5089C21.1059 23.5089 21.2744 23.3424 21.4008 23.2176L21.5693 23.0512L21.4429 22.8431C21.4429 22.8431 21.148 22.3854 20.9374 22.0942C20.8952 22.0526 20.8531 21.9694 20.811 21.9277C20.5582 21.5949 20.2633 21.1372 19.6735 21.1372H19.6314C19.5471 21.1372 19.4629 21.1788 19.3786 21.1788C19.2101 21.0956 18.9995 21.054 18.7888 21.054C18.5361 21.054 18.3254 21.1372 18.1991 21.1788C18.1569 21.2204 18.1148 21.2204 18.0727 21.2204L16.9774 21.0956C16.9774 21.0956 16.9352 21.054 16.851 21.0123L17.1037 20.9291C17.0195 20.1386 16.2612 19.6393 15.8399 19.4728C15.8399 19.3896 15.7978 19.3064 15.7135 19.2648L15.4608 19.0567L15.2501 19.3064L15.1659 19.3896L13.6071 18.7655L14.6182 20.0137L14.2391 20.5963C14.1127 20.7627 14.2391 20.8875 14.2391 20.8875L14.6603 21.1788L15.0816 21.0123H15.1237C15.1237 21.0956 15.0816 21.3452 15.0395 21.3868L14.3233 21.3036L13.5229 21.7197C13.1016 22.011 13.0595 22.5103 13.228 22.8015L13.3123 22.968L13.4386 23.2176L13.6914 23.0928C13.6071 23.3841 13.6493 23.7169 13.8178 23.8834L13.9863 24.0914L14.1969 24.3827L14.4497 24.133C14.534 24.0498 14.7446 23.8001 14.8288 23.5921L14.871 23.4257L14.7446 23.3008V23.2592L14.871 23.0512L15.8399 23.2592L16.0506 23.3008L16.1769 23.0928L16.2191 23.0096C16.2191 22.968 16.2191 22.968 16.2612 22.968C16.3033 22.968 16.3454 22.968 16.3876 22.968C16.7667 23.0512 17.1037 23.0512 17.3986 23.0512C17.6935 23.0512 17.862 23.0512 18.0727 22.968C18.0727 22.968 18.5782 23.5505 18.6203 23.5921L18.2833 24.5491V24.5907C17.6935 24.6323 17.3986 24.7571 17.0195 25.1316C16.514 24.6323 16.1348 24.5907 14.7446 24.5907C13.1016 24.5907 11.9642 23.6337 11.9642 22.0942V18.3494H22.0748V22.0942C22.0748 23.4673 21.3586 24.3411 20.1791 24.6323ZM22.3697 12.3993C22.2012 12.8154 22.0748 13.2315 22.0748 13.6892V16.477C21.485 16.3938 21.4008 15.728 21.4008 15.728V15.6032H21.2744C21.0216 15.5616 20.8531 15.4784 20.6846 15.3535C20.3897 15.0623 20.3897 14.6046 20.3897 14.6046C20.3897 14.6462 20.0527 15.0623 20.4318 15.5616C20.6003 15.7696 20.811 15.8945 21.1059 15.9361C21.1901 16.2689 21.4429 16.7682 22.0748 16.8515V18.2246H20.3054C19.505 17.7669 19.842 17.0179 19.842 16.9763L19.9263 16.8099L19.7999 16.685C18.9152 16.3522 19.168 15.52 19.168 15.4784L19.2101 15.3535L19.0837 15.3119C18.3676 14.9791 18.4518 14.1053 18.4518 14.0637C18.2412 14.2301 18.1569 14.6046 18.2833 14.9791C18.1991 15.0623 18.0727 15.1871 17.9884 15.3119C17.2723 15.1039 17.2723 14.3965 17.2723 14.3965V14.2717L17.188 14.2301C16.8931 14.1053 16.6825 13.9804 16.5982 13.7308C16.4718 13.4811 16.514 13.2315 16.5561 13.1067C16.6403 13.1067 16.7246 13.1483 16.8089 13.1483C16.8931 13.1483 16.9774 13.1483 17.0616 13.1483C17.1459 13.1483 17.2301 13.1483 17.3144 13.1483C17.7778 13.1067 18.2833 12.8986 18.831 12.3577H22.3697V12.3993ZM19.6314 9.56991L20.3054 9.98599L20.474 10.0692C20.0948 10.194 19.7999 10.3605 19.5471 10.6101C19.5471 10.6101 19.5471 10.6101 19.505 10.6517C19.4629 10.6933 19.3786 10.7766 19.3365 10.8598C19.3365 10.8598 19.3365 10.9014 19.2944 10.9014C19.2523 10.9846 19.2101 11.0262 19.1259 11.1094C19.1259 11.1094 19.1259 11.151 19.0837 11.151C19.0416 11.2343 18.9574 11.3175 18.9152 11.4007C18.4097 12.2329 17.6514 12.7322 16.9352 12.7322C16.2191 12.7322 15.4608 12.2329 14.9552 11.4007C14.9131 11.3175 14.8288 11.2343 14.7867 11.151L14.7446 11.1094C14.7025 11.0262 14.6603 10.9846 14.6182 10.9014L14.5761 10.8598C14.534 10.7766 14.4497 10.735 14.4076 10.6517C14.4076 10.6517 14.4076 10.6517 14.3654 10.6101C14.1127 10.3605 13.8178 10.1524 13.4386 10.0692L13.6071 9.98599L14.2812 9.56991L14.9974 9.15382L16.8931 10.194L18.7888 9.15382L19.6314 9.56991ZM18.7046 8.73773L17.188 9.5283V6.32441L19.2523 5.61706L18.7046 8.73773ZM17.0195 5.99154L14.7867 5.11776C14.9974 4.66006 15.8399 4.28558 17.0195 4.28558C18.1991 4.28558 19.0837 4.66006 19.2523 5.11776L17.0195 5.99154Z" fill="white"/>
<path d="M47.7306 12.233C47.857 12.0665 47.9413 11.9001 48.0676 11.6921H48.1519V15.6033H49.9213V9.02909H48.1519L46.1298 12.0249C46.0034 12.1914 45.9191 12.3578 45.7927 12.5242C45.6664 12.6907 45.5821 12.8571 45.4557 13.0235H45.3715V8.98748H43.6021V15.6033H45.3715C45.7085 15.1456 46.0455 14.6879 46.3404 14.1886C46.6774 13.6893 46.9723 13.2316 47.3093 12.7739C47.4778 12.6075 47.6042 12.441 47.7306 12.233Z" fill="white"/>
<path d="M53.4179 12.8988H56.0719V15.6449H57.8834V9.02913H56.0719V11.5257H53.4179V9.02913H51.6064V15.6449H53.4179V12.8988Z" fill="white"/>
<path d="M65.2557 13.5229C65.2557 12.8571 65.0029 12.3162 64.5395 11.9417C64.0761 11.5673 63.4442 11.4008 62.6438 11.4008H61.3378V9.07073H59.5685V15.6865H62.728C63.4863 15.6865 64.1183 15.5201 64.5817 15.1872C65.0451 14.7711 65.2557 14.2302 65.2557 13.5229ZM63.1915 14.1054C63.0229 14.2302 62.7702 14.3134 62.4753 14.3134H61.3378V12.6907H62.4753C62.7702 12.6907 63.0229 12.7739 63.1915 12.8987C63.36 13.0236 63.4442 13.2316 63.4442 13.5229C63.4864 13.7725 63.36 13.9806 63.1915 14.1054Z" fill="white"/>
<path d="M88.2996 14.7711C88.5944 14.4799 88.8472 14.1054 89.0578 13.6893C89.2264 13.2732 89.3527 12.8155 89.3527 12.2746C89.3527 11.7753 89.2685 11.3176 89.1 10.9431C88.9315 10.527 88.6787 10.1942 88.3838 9.9029C88.0889 9.61163 87.7098 9.36198 87.2464 9.19555C86.8251 9.02911 86.3617 8.94589 85.8561 8.90428V6.40775L84.171 7.03188V8.86267C83.6655 8.90428 83.2021 8.9875 82.7808 9.15394C82.3596 9.32037 81.9804 9.57003 81.6434 9.86129C81.3064 10.1526 81.0536 10.4854 80.8851 10.9015C80.7166 11.3176 80.5902 11.7337 80.5902 12.233C80.5902 12.7739 80.6744 13.2316 80.843 13.6477C81.0115 14.0638 81.2642 14.4383 81.5591 14.7295C81.854 15.0208 82.2332 15.2704 82.6966 15.4369C83.1178 15.6033 83.6234 15.6865 84.171 15.7281V18.5159L85.8561 17.8918V15.7281C86.3617 15.6865 86.8251 15.6033 87.2464 15.4369C87.5834 15.3121 87.9625 15.0624 88.2996 14.7711ZM84.0868 14.4799C83.834 14.4799 83.5812 14.3967 83.3706 14.3134C83.16 14.2302 82.9493 14.0638 82.7808 13.8973C82.6123 13.7309 82.4859 13.4813 82.3596 13.2316C82.2753 12.982 82.191 12.6907 82.191 12.3162C82.191 11.7337 82.3596 11.276 82.6966 10.8599C83.0336 10.4854 83.497 10.2358 84.0868 10.1942V14.4799ZM86.4459 14.3134C86.2353 14.3967 85.9825 14.4799 85.7719 14.4799V10.1942C86.3617 10.2358 86.8251 10.4438 87.12 10.8599C87.457 11.2344 87.5834 11.7337 87.5834 12.3162C87.5834 12.6491 87.5413 12.982 87.4149 13.2316C87.3306 13.4813 87.1621 13.7309 86.9936 13.8973C86.8672 14.0638 86.6987 14.1886 86.4459 14.3134Z" fill="white"/>
<path d="M98.7472 13.6893C98.9157 13.2732 99 12.8155 99 12.2746C99 11.7753 98.9157 11.3176 98.7472 10.9431C98.5787 10.527 98.3259 10.1942 98.031 9.9029C97.7361 9.61163 97.357 9.36198 96.8936 9.19555C96.4723 9.02911 95.9668 8.94589 95.5034 8.90428V6.40775L93.8183 7.03188V8.86267C93.3127 8.90428 92.8493 8.9875 92.428 9.15394C92.0068 9.32037 91.6276 9.57003 91.2906 9.86129C90.9536 10.1526 90.7008 10.4854 90.5323 10.9015C90.3638 11.3176 90.2374 11.7337 90.2374 12.233C90.2374 12.7739 90.3217 13.2316 90.4902 13.6477C90.6587 14.0638 90.9115 14.4383 91.2063 14.7295C91.5012 15.0208 91.8804 15.2704 92.3438 15.4369C92.7651 15.6033 93.2706 15.6865 93.8183 15.7281V18.5159L95.5034 17.8918V15.7281C96.0089 15.6865 96.4723 15.6033 96.8936 15.4369C97.3149 15.2704 97.694 15.0208 97.9889 14.7295C98.3259 14.4799 98.5787 14.1054 98.7472 13.6893ZM93.8183 14.4799C93.5655 14.4799 93.3127 14.3967 93.1021 14.3134C92.8915 14.2302 92.6808 14.0638 92.5123 13.8973C92.3438 13.7309 92.2174 13.4813 92.091 13.2316C92.0068 12.982 91.9225 12.6907 91.9225 12.3162C91.9225 11.7337 92.091 11.276 92.428 10.8599C92.7651 10.4854 93.2285 10.2358 93.8183 10.1942V14.4799ZM97.1464 13.2316C97.0621 13.4813 96.8936 13.7309 96.7251 13.8973C96.5566 14.0638 96.3459 14.2302 96.1353 14.3134C95.9246 14.3967 95.6719 14.4799 95.4612 14.4799V10.1942C96.051 10.2358 96.5144 10.4438 96.8093 10.8599C97.1464 11.2344 97.2727 11.7337 97.2727 12.3162C97.3149 12.6491 97.2727 12.9403 97.1464 13.2316Z" fill="white"/>
<path d="M36.3561 7.73924H38.9681V15.6449H40.8217V7.73924H43.3493V6.19971H36.3561V7.73924Z" fill="white"/>
<path d="M72.7123 9.07074H70.6481L68.2889 11.8585V9.02913H66.4774V15.6449H68.2889V12.3994L70.6059 15.6449H72.7123L70.1004 12.1082L72.7123 9.07074Z" fill="white"/>
<path d="M78.6944 9.81968C78.3995 9.52842 78.0625 9.27876 77.6412 9.15394C77.22 8.9875 76.7987 8.90428 76.3353 8.90428C75.8719 8.90428 75.4085 8.9875 75.0293 9.15394C74.6081 9.32037 74.271 9.52842 73.9761 9.81968C73.6812 10.1109 73.4706 10.4854 73.3021 10.9015C73.1336 11.3176 73.0493 11.8169 73.0493 12.3578C73.0493 12.8987 73.1336 13.3564 73.3021 13.7725C73.4706 14.1886 73.6812 14.5631 73.9761 14.8544C74.271 15.1456 74.6081 15.3953 74.9872 15.5617C75.3664 15.7281 75.8298 15.8114 76.3353 15.8114C76.7987 15.8114 77.2621 15.7281 77.6412 15.5617C78.0625 15.3953 78.3995 15.1872 78.6944 14.896C78.9893 14.6047 79.2 14.2302 79.3685 13.8141C79.537 13.398 79.6212 12.8987 79.6212 12.3578C79.6212 11.8169 79.537 11.3592 79.3685 10.9431C79.2 10.4854 78.9472 10.1109 78.6944 9.81968ZM77.6834 13.1484C77.5991 13.398 77.5149 13.6061 77.3885 13.7725C77.2621 13.939 77.0936 14.1054 76.9251 14.1886C76.7566 14.2718 76.5459 14.355 76.2932 14.355C75.8298 14.355 75.4506 14.1886 75.1978 13.8141C74.9451 13.4397 74.8187 12.9403 74.8187 12.3162C74.8187 11.7337 74.9451 11.276 75.1978 10.9015C75.4506 10.527 75.7876 10.319 76.2932 10.319C76.7987 10.319 77.1778 10.527 77.4306 10.8599C77.6834 11.2344 77.8098 11.7337 77.8098 12.3162C77.8098 12.6075 77.7676 12.8987 77.6834 13.1484Z" fill="white"/>
<path d="M41.6221 21.8862C42.2961 21.8862 42.8017 22.0527 43.1808 22.3439C43.56 22.6352 43.7285 23.1345 43.7285 23.7586C43.7285 24.3828 43.56 24.8405 43.1808 25.1317C42.8017 25.423 42.2961 25.631 41.6221 25.631H38.9681V19.2233H43.0966V19.889H39.6842V21.8862H41.6221ZM42.9702 23.7586C42.9702 23.3841 42.8438 23.0929 42.6332 22.8848C42.3804 22.6768 42.0855 22.552 41.6642 22.552H39.7264V24.9653H41.6642C42.0855 24.9653 42.4225 24.8821 42.6332 24.674C42.8859 24.466 42.9702 24.1747 42.9702 23.7586Z" fill="white"/>
<path d="M46.5932 20.7212C47.1408 20.7212 47.6042 20.846 47.8991 21.0956C48.194 21.3453 48.3625 21.7614 48.3625 22.2607V25.5894H47.6464V25.1317C47.3936 25.3814 47.1408 25.5062 46.8881 25.5894C46.6353 25.6726 46.3825 25.7142 46.1719 25.7142C45.9612 25.7142 45.7927 25.6726 45.5821 25.631C45.3715 25.5894 45.2029 25.5062 45.0766 25.3814C44.9081 25.2565 44.7817 25.0901 44.6974 24.9237C44.6132 24.7156 44.571 24.5076 44.571 24.2163C44.571 23.9667 44.6132 23.7586 44.6974 23.5922C44.7817 23.3841 44.9081 23.2593 45.0766 23.0929C45.2451 22.968 45.4136 22.8432 45.6664 22.8016C45.877 22.7184 46.1298 22.6768 46.3825 22.6768C46.5932 22.6768 46.8038 22.7184 47.0144 22.76C47.2251 22.8016 47.4778 22.8848 47.6885 23.0097V22.4271C47.6885 22.0526 47.6042 21.803 47.3936 21.595C47.2251 21.4285 46.9302 21.3453 46.551 21.3453C46.2983 21.3453 46.0876 21.3869 45.877 21.4285C45.6664 21.4701 45.4557 21.5533 45.2451 21.6782L44.9923 21.1373C45.2451 21.0124 45.4557 20.9292 45.7506 20.8876C45.9612 20.7628 46.2561 20.7212 46.5932 20.7212ZM47.6464 23.5922C47.4357 23.4674 47.2672 23.3841 47.0566 23.3425C46.8459 23.2593 46.6353 23.2593 46.3404 23.2593C46.0034 23.2593 45.7506 23.3425 45.54 23.509C45.3293 23.6754 45.2029 23.925 45.2029 24.2163C45.2029 24.5492 45.2872 24.7572 45.4978 24.9237C45.6664 25.0901 45.9612 25.1733 46.2983 25.1733C46.551 25.1733 46.8038 25.0901 47.0566 24.9653C47.3093 24.8404 47.52 24.674 47.6885 24.5076V23.5922H47.6464Z" fill="white"/>
<path d="M52.7017 25.631V23.4258H50.1319V25.631H49.4157V20.8044H50.1319V22.8016H52.7017V20.8044H53.4178V25.631H52.7017Z" fill="white"/>
<path d="M58.1361 20.846L55.9455 23.0513L58.2204 25.631H57.3778L55.2715 23.1761V25.631H54.5553V20.846H55.2715V22.9681L57.3778 20.846H58.1361Z" fill="white"/>
</g>
</svg>
