<svg width="45" height="15" viewBox="0 0 45 15" fill="none" xmlns="http://www.w3.org/2000/svg">
<g>
<path d="M29.25 0C25.375 0 23.375 1.93966 23.375 4.52586C23.375 9.05172 28.5 8.40517 28.5 10.7328C28.5 11.1207 28.25 12.0259 26.125 12.0259C24 12.0259 22.625 11.1207 22.625 11.1207L22 14.2241C22 14.2241 23.375 15 26 15C28.625 15 32.25 12.931 32.25 9.82759C32.25 6.2069 27.125 5.81897 27.125 4.26724C27.125 3.49138 27.75 2.84483 29.625 2.84483C30.875 2.84483 32.125 3.75 32.125 3.75L32.75 0.646552C32.75 0.775862 31 0 29.25 0Z" fill="white"/>
<path d="M12.75 0.258911L9.375 10.6037C9.375 10.6037 9.125 9.69857 9 9.18132C7.125 4.78477 4 3.10374 4 3.10374L7 14.7417H11.125L16.75 0.388221H12.75V0.258911Z" fill="white"/>
<path d="M18.125 0.258911L16 14.6124H19.75L21.875 0.258911H18.125Z" fill="white"/>
<path d="M0 0.387695C0 0.387695 7.25 2.71528 9 8.40494L7.75 1.81011C7.75 1.81011 7.25 0.387695 5.75 0.387695H0Z" fill="white"/>
<path d="M42.125 0.258911H38.25L32.25 14.6124H35.875L36.625 12.5434H41.25L41.625 14.6124H45L42.125 0.258911ZM37.625 9.82788L39.625 4.39684L40.625 9.82788H37.625Z" fill="white"/>
</g>
</svg>
