<svg width="17" height="10" viewBox="0 0 17 10" fill="none" xmlns="http://www.w3.org/2000/svg">
<path d="M16.221 10H13.9213H13.8361C13.6657 10 13.2399 9.91228 12.814 9.64912C12.0474 9.12281 11.2809 7.63158 10.6846 7.63158H10.5995C10.0884 7.80702 9.91808 8.33333 9.91808 9.03509C9.91808 9.29825 9.74773 9.38597 9.32186 9.38597H8.12942C6.8518 9.38597 5.57419 9.38597 4.12622 7.7193C1.99686 5.35088 0.0378553 1.14035 0.0378553 1.14035C0.0378553 1.14035 -0.0473191 0.877193 0.0378553 0.789474C0.12303 0.701754 0.378553 0.614035 0.463727 0.614035H2.93378C2.93378 0.614035 3.18931 0.614035 3.35965 0.789474C3.44483 0.877193 3.53 1.05263 3.53 1.05263C3.53 1.05263 3.95587 1.84211 4.46692 2.80702C5.31866 4.38597 5.82971 4.82456 6.17041 4.82456C6.25558 4.82456 6.25558 4.82456 6.34076 4.82456C6.76663 4.5614 6.68145 2.2807 6.68145 2.2807C6.68145 2.2807 6.68145 1.49123 6.42593 1.05263C6.17041 0.789474 5.82971 0.701754 5.65936 0.701754C5.48901 0.701754 5.74453 0.350877 6.00006 0.175439C6.42593 0 7.02215 0 7.78872 0H8.12942C8.81081 0 8.89598 0.0877193 9.15151 0.175439C10.0033 0.350877 9.66255 1.22807 9.66255 3.15789C9.66255 3.77193 9.57738 4.64912 10.0033 4.91228H10.0884C10.3439 4.91228 10.9402 4.5614 11.9623 2.89474C12.4733 1.92982 12.8992 0.964912 12.8992 0.964912C12.8992 0.964912 12.9844 0.789474 13.1547 0.701754C13.325 0.614035 13.325 0.614035 13.4954 0.614035C13.6657 0.614035 15.6248 0.614035 16.0506 0.614035H16.1358C16.5617 0.614035 16.9024 0.614035 16.9875 0.877193C17.0727 1.22807 16.732 1.92982 15.6248 3.42105C13.9213 5.78947 13.7509 5.61404 15.1137 6.92982C16.4765 8.24562 16.732 8.85965 16.8172 8.94737C17.4134 9.91228 16.221 10 16.221 10Z" fill="white"/>
</svg>
