<svg width="92" height="18" viewBox="0 0 92 18" fill="none" xmlns="http://www.w3.org/2000/svg">
<g>
<path d="M4.4 9.3L1.9 15H0L2.8 8.9C1.5 8.2 0.6 7 0.6 4.7C0.6 1.6 2.6 0 5 0H7.4V15H5.8V9.3H4.4ZM5.8 1.4H4.9C3.6 1.4 2.3 2.3 2.3 4.8C2.3 7.2 3.5 8 4.9 8H5.8V1.4Z" fill="white"/>
<path d="M15.2 4.39995V15H13.6V10.3H11.2V15H9.5V4.39995H11.1V8.89995H13.5V4.39995H15.2ZM23.6 17.1H22.1V15H17.6V17.1H16.1V13.7H16.8C17.8 11.5 17.9 8.19995 17.9 5.39995V4.39995H22.8V13.6H23.6V17.1ZM21.1 5.69995H19.3V5.89995C19.3 8.09995 19.2 11.4 18.3 13.6H21.1V5.69995ZM28.1 15.1C25.9 15.1 24.6 13.4 24.6 10.1C24.6 6.69995 25.5 4.19995 27.8 4.19995C29.6 4.19995 30.7 5.49995 30.7 9.09995V9.99995H26.3C26.3 12.4 27 13.7 28.3 13.7C29.2 13.7 30 13.3 30.4 13L30.8 14.3C30 14.8 29.1 15.1 28.1 15.1ZM26.3 8.79995H29C29 6.99995 28.7 5.69995 27.8 5.69995C26.8 5.59995 26.4 6.89995 26.3 8.79995ZM34 9.69995V15H32.4V4.39995H34V9.29995L36.5 4.39995H38.2L35.6 9.39995L38.6 15H36.8L34 9.69995ZM38.8 9.69995C38.8 6.39995 40.1 4.29995 42.6 4.29995C43.5 4.29995 44.1 4.59995 44.6 4.79995L44.4 6.39995C44 5.99995 43.3 5.69995 42.7 5.69995C41.5 5.69995 40.7 6.99995 40.7 9.69995C40.7 12.3 41.3 13.9 42.7 13.9C43.5 13.9 44.1 13.6 44.5 13.2L44.9 14.4C44.3 14.9 43.7 15.2 42.7 15.2C40.1 15.1 38.8 13.3 38.8 9.69995Z" fill="white"/>
<path d="M55.7 15H49.3L49.2 17.5H48.4V14.1H48.8C49.5 13.5 49.9 11.8 50.1 9.7C50.3 7.5 50.4 4.2 50.4 0H55.6V14.1H56.6V17.5H55.8L55.7 15ZM54.6 0.9H51.3C51.2 4.7 51.1 7.6 51 9.8C50.8 12 50.5 13.5 49.9 14.2H54.6V0.9Z" fill="white"/>
<path d="M61.1 14.4C62.5 14.4 63.2 13.3 63.2 13.3L63.5 14.1C63.5 14.1 62.7 15.3 61 15.3C58.8 15.3 57.7 13.3 57.7 9.80005C57.7 6.30005 59 4.30005 60.8 4.30005C62.6 4.30005 63.8 6.20005 63.5 10H58.7C58.8 12.8 59.5 14.4 61.1 14.4ZM58.7 9.10005H62.5C62.8 6.30005 61.9 5.00005 60.8 5.00005C59.7 5.00005 58.8 6.50005 58.7 9.10005Z" fill="white"/>
<path d="M70 9.90002H66.4V15H65.4V4.40002H66.4V9.10003H70V4.40002H71V15H70V9.90002Z" fill="white"/>
<path d="M73.3 4.40002H74.3V8.30002H75.1C77.1 8.30002 78.4 9.40002 78.4 11.6C78.4 13.8 77 15 75 15H73.3V4.40002ZM74.3 9.10003V14.2H74.9C76.4 14.2 77.4 13.5 77.4 11.6C77.4 9.80003 76.5 9.10003 75 9.10003H74.3Z" fill="white"/>
<path d="M81 5.20002V15H80V4.40002H84.5V5.20002H81Z" fill="white"/>
<path d="M91 7.60002C91 7.10002 91 6.60002 91.1 6.20002H91C90.9 6.70002 90.7 7.10002 90.4 7.60002L87 15H86.2V4.40002H87.1V11.7C87.1 12.3 87.1 12.7 87 13.2H87.1C87.2 12.7 87.5 12.3 87.7 11.8L91.1 4.40002H92V15H91V7.60002Z" fill="white"/>
</g>
</svg>
