<svg width="85" height="33" viewBox="0 0 85 33" fill="none" xmlns="http://www.w3.org/2000/svg">
<path d="M54.8765 11.5113C47.8781 14.5492 47.1783 25.4499 47.1783 25.4499C45.2157 24.0352 42.4924 17.7509 42.4924 17.7509C42.4924 17.7509 39.7691 24.0352 37.8065 25.4499C37.8065 25.4499 37.1067 14.5492 30.1083 11.5113C23.3685 8.59251 9.61518 7.78836 0 0C0.745481 1.53384 1.41489 3.17193 2.38858 4.58664C4.32074 7.43096 7.24181 9.23285 10.3454 10.6327C13.8751 12.2112 17.6481 13.1494 21.4364 13.8493C23.7489 14.2811 26.0918 14.6385 28.237 15.5916C30.3669 16.5447 32.3143 18.1977 32.9837 20.4016C27.2024 16.7978 19.8846 16.7978 13.4034 14.6236C11.8973 14.1173 10.4215 13.477 9.00662 12.7473C8.30678 12.375 7.60694 11.9729 6.93753 11.556C6.60283 11.3475 6.26812 11.1241 5.94863 10.9007C5.75085 10.7667 5.21836 10.5284 5.12708 10.3199C5.27922 10.6327 5.43136 10.9454 5.5835 11.2432C5.64435 11.3624 5.70521 11.4815 5.75085 11.6006C5.75085 11.6155 5.76606 11.6155 5.76606 11.6304C6.19205 12.4792 6.63326 13.3132 7.2266 14.0578C8.35242 15.5023 9.8586 16.6638 11.4713 17.5722C12.6427 18.2274 13.8903 18.7486 15.1835 19.1656C16.8874 19.7166 18.6674 20.208 20.4323 20.4761C29.8649 21.9206 33.8357 23.0523 34.6268 26.671C34.6268 26.671 32.8772 24.3926 26.0918 23.7225C23.049 23.4246 14.8792 22.7545 10.0868 19.1805C11.4256 21.0271 13.2057 22.6801 14.8488 23.9012C19.0174 27.0135 25.5593 26.4477 28.3739 27.1029C31.2037 27.7581 33.7292 27.6837 35.9504 33C35.9504 33 39.9821 30.9301 42.4924 25.3606C45.0027 30.9449 49.0344 33 49.0344 33C51.2404 27.6688 53.7811 27.7581 56.6109 27.1029C59.4254 26.4477 65.9674 26.9986 70.136 23.9012C71.7943 22.6652 73.5744 21.0271 74.898 19.1805C70.1056 22.7545 61.9357 23.4246 58.893 23.7225C52.1076 24.3926 50.358 26.671 50.358 26.671C51.1491 23.0523 55.1199 21.9206 64.5525 20.4761C66.3173 20.208 68.0974 19.7166 69.8013 19.1656C71.0793 18.7486 72.3268 18.2274 73.5135 17.5722C75.1262 16.6787 76.6324 15.5171 77.7582 14.0578C78.3515 13.2983 78.7927 12.4792 79.2187 11.6304C79.2187 11.6155 79.2339 11.6155 79.2339 11.6006C79.2948 11.4815 79.3557 11.3624 79.4013 11.2432C79.5534 10.9305 79.7056 10.6327 79.8577 10.3199C79.7512 10.5284 79.2339 10.7667 79.0362 10.9007C78.7167 11.1241 78.382 11.3475 78.0472 11.556C77.3778 11.9878 76.6932 12.3899 75.9782 12.7473C74.5633 13.4919 73.1027 14.1173 71.5813 14.6236C65.1002 16.7978 57.7671 16.7978 52.0011 20.4016C52.6705 18.1977 54.6179 16.5447 56.7478 15.5916C58.8778 14.6385 61.2359 14.2811 63.5484 13.8493C67.3367 13.1494 71.1249 12.2112 74.6393 10.6327C77.7582 9.23285 80.664 7.41606 82.6114 4.58664C83.5851 3.17193 84.2545 1.53384 85 0C75.3696 7.78836 61.6163 8.59251 54.8765 11.5113Z" fill="url(#paint0_linear)"/>
<path d="M54.8765 11.5113C47.8781 14.5492 47.1783 25.4499 47.1783 25.4499C45.2157 24.0352 42.4924 17.7509 42.4924 17.7509C42.4924 17.7509 39.7691 24.0352 37.8065 25.4499C37.8065 25.4499 37.1067 14.5492 30.1083 11.5113C23.3685 8.59251 9.61518 7.78836 0 0C0.745481 1.53384 1.41489 3.17193 2.38858 4.58664C4.32074 7.43096 7.24181 9.23285 10.3454 10.6327C13.8751 12.2112 17.6481 13.1494 21.4364 13.8493C23.7489 14.2811 26.0918 14.6385 28.237 15.5916C30.3669 16.5447 32.3143 18.1977 32.9837 20.4016C27.2024 16.7978 19.8846 16.7978 13.4034 14.6236C11.8973 14.1173 10.4215 13.477 9.00662 12.7473C8.30678 12.375 7.60694 11.9729 6.93753 11.556C6.60283 11.3475 6.26812 11.1241 5.94863 10.9007C5.75085 10.7667 5.21836 10.5284 5.12708 10.3199C5.27922 10.6327 5.43136 10.9454 5.5835 11.2432C5.64435 11.3624 5.70521 11.4815 5.75085 11.6006C5.75085 11.6155 5.76606 11.6155 5.76606 11.6304C6.19205 12.4792 6.63326 13.3132 7.2266 14.0578C8.35242 15.5023 9.8586 16.6638 11.4713 17.5722C12.6427 18.2274 13.8903 18.7486 15.1835 19.1656C16.8874 19.7166 18.6674 20.208 20.4323 20.4761C29.8649 21.9206 33.8357 23.0523 34.6268 26.671C34.6268 26.671 32.8772 24.3926 26.0918 23.7225C23.049 23.4246 14.8792 22.7545 10.0868 19.1805C11.4256 21.0271 13.2057 22.6801 14.8488 23.9012C19.0174 27.0135 25.5593 26.4477 28.3739 27.1029C31.2037 27.7581 33.7292 27.6837 35.9504 33C35.9504 33 39.9821 30.9301 42.4924 25.3606C45.0027 30.9449 49.0344 33 49.0344 33C51.2404 27.6688 53.7811 27.7581 56.6109 27.1029C59.4254 26.4477 65.9674 26.9986 70.136 23.9012C71.7943 22.6652 73.5744 21.0271 74.898 19.1805C70.1056 22.7545 61.9357 23.4246 58.893 23.7225C52.1076 24.3926 50.358 26.671 50.358 26.671C51.1491 23.0523 55.1199 21.9206 64.5525 20.4761C66.3173 20.208 68.0974 19.7166 69.8013 19.1656C71.0793 18.7486 72.3268 18.2274 73.5135 17.5722C75.1262 16.6787 76.6324 15.5171 77.7582 14.0578C78.3515 13.2983 78.7927 12.4792 79.2187 11.6304C79.2187 11.6155 79.2339 11.6155 79.2339 11.6006C79.2948 11.4815 79.3557 11.3624 79.4013 11.2432C79.5534 10.9305 79.7056 10.6327 79.8577 10.3199C79.7512 10.5284 79.2339 10.7667 79.0362 10.9007C78.7167 11.1241 78.382 11.3475 78.0472 11.556C77.3778 11.9878 76.6932 12.3899 75.9782 12.7473C74.5633 13.4919 73.1027 14.1173 71.5813 14.6236C65.1002 16.7978 57.7671 16.7978 52.0011 20.4016C52.6705 18.1977 54.6179 16.5447 56.7478 15.5916C58.8778 14.6385 61.2359 14.2811 63.5484 13.8493C67.3367 13.1494 71.1249 12.2112 74.6393 10.6327C77.7582 9.23285 80.664 7.41606 82.6114 4.58664C83.5851 3.17193 84.2545 1.53384 85 0C75.3696 7.78836 61.6163 8.59251 54.8765 11.5113Z" fill="url(#paint1_linear)"/>
<defs>
<linearGradient id="paint0_linear" x1="0" y1="16.4935" x2="84.9865" y2="16.4935" gradientUnits="userSpaceOnUse">
<stop stop-color="#FD505C"/>
<stop offset="0.5006" stop-color="#D80F4F"/>
<stop offset="0.5006" stop-color="#FD505C"/>
<stop offset="1" stop-color="#D80F4F"/>
</linearGradient>
<linearGradient id="paint1_linear" x1="3.01807e-07" y1="16.4998" x2="85" y2="16.4998" gradientUnits="userSpaceOnUse">
<stop stop-color="#3706AD"/>
<stop offset="1" stop-color="#A310B0"/>
</linearGradient>
</defs>
</svg>
