<svg width="100" height="10" viewBox="0 0 100 10" fill="none" xmlns="http://www.w3.org/2000/svg">
<path d="M7.072 1.586H7.007L6.24 3.107L4.069 7.059L1.898 3.107L1.131 1.586H1.066V9.23H0V0.156H1.456L4.056 5.044H4.121L6.734 0.156H8.138V9.23H7.072V1.586Z" fill="black"/>
<path d="M11.0698 0.156H12.1358V5.85L12.0318 7.709H12.0708L12.9808 6.071L16.8548 0.156H17.8428V9.23H16.7768V3.536L16.8808 1.677H16.8418L15.9318 3.315L12.0578 9.23H11.0698V0.156Z" fill="black"/>
<path d="M20.7812 9.23V0.156H24.3952C25.2099 0.156 25.8339 0.39 26.2672 0.858C26.7092 1.31733 26.9302 1.95 26.9302 2.756C26.9302 3.562 26.7092 4.199 26.2672 4.667C25.8339 5.12633 25.2099 5.356 24.3952 5.356H21.8732V9.23H20.7812ZM21.8732 4.394H24.3952C24.8285 4.394 25.1622 4.28133 25.3962 4.056C25.6389 3.83067 25.7602 3.51 25.7602 3.094V2.418C25.7602 2.002 25.6389 1.68133 25.3962 1.456C25.1622 1.23067 24.8285 1.118 24.3952 1.118H21.8732V4.394Z" fill="black"/>
<path d="M35.8323 1.118V9.23H34.7403V1.118H31.8543V0.156H38.7183V1.118H35.8323Z" fill="black"/>
<path d="M43.8758 9.386C43.2865 9.386 42.7535 9.28633 42.2768 9.087C41.8088 8.879 41.4058 8.58 41.0678 8.19C40.7385 7.79133 40.4828 7.30167 40.3008 6.721C40.1188 6.13167 40.0278 5.45567 40.0278 4.693C40.0278 3.93033 40.1188 3.25867 40.3008 2.678C40.4828 2.09733 40.7385 1.60767 41.0678 1.209C41.4058 0.810333 41.8088 0.511333 42.2768 0.312C42.7535 0.104 43.2865 0 43.8758 0C44.4565 0 44.9851 0.104 45.4618 0.312C45.9385 0.511333 46.3415 0.810333 46.6708 1.209C47.0088 1.60767 47.2688 2.09733 47.4508 2.678C47.6328 3.25867 47.7238 3.93033 47.7238 4.693C47.7238 5.45567 47.6328 6.13167 47.4508 6.721C47.2688 7.30167 47.0088 7.79133 46.6708 8.19C46.3415 8.58 45.9385 8.879 45.4618 9.087C44.9851 9.28633 44.4565 9.386 43.8758 9.386ZM43.8758 8.411C44.2658 8.411 44.6255 8.34167 44.9548 8.203C45.2841 8.06433 45.5658 7.865 45.7998 7.605C46.0425 7.345 46.2288 7.033 46.3588 6.669C46.4888 6.305 46.5538 5.89767 46.5538 5.447V3.939C46.5538 3.48833 46.4888 3.081 46.3588 2.717C46.2288 2.353 46.0425 2.041 45.7998 1.781C45.5658 1.521 45.2841 1.32167 44.9548 1.183C44.6255 1.04433 44.2658 0.975 43.8758 0.975C43.4858 0.975 43.1261 1.04433 42.7968 1.183C42.4675 1.32167 42.1815 1.521 41.9388 1.781C41.7048 2.041 41.5228 2.353 41.3928 2.717C41.2628 3.081 41.1978 3.48833 41.1978 3.939V5.447C41.1978 5.89767 41.2628 6.305 41.3928 6.669C41.5228 7.033 41.7048 7.345 41.9388 7.605C42.1815 7.865 42.4675 8.06433 42.7968 8.203C43.1261 8.34167 43.4858 8.411 43.8758 8.411Z" fill="black"/>
<path d="M50.2069 9.23V0.156H53.8209C54.6356 0.156 55.2596 0.39 55.6929 0.858C56.1349 1.31733 56.3559 1.95 56.3559 2.756C56.3559 3.562 56.1349 4.199 55.6929 4.667C55.2596 5.12633 54.6356 5.356 53.8209 5.356H51.2989V9.23H50.2069ZM51.2989 4.394H53.8209C54.2542 4.394 54.5879 4.28133 54.8219 4.056C55.0646 3.83067 55.1859 3.51 55.1859 3.094V2.418C55.1859 2.002 55.0646 1.68133 54.8219 1.456C54.5879 1.23067 54.2542 1.118 53.8209 1.118H51.2989V4.394Z" fill="black"/>
<path d="M58.6107 0.156H63.5507V1.118H59.7027V9.23H58.6107V0.156Z" fill="black"/>
<path d="M68.5794 9.386C67.99 9.386 67.457 9.28633 66.9804 9.087C66.5124 8.879 66.1094 8.58 65.7714 8.19C65.442 7.79133 65.1864 7.30167 65.0044 6.721C64.8224 6.13167 64.7314 5.45567 64.7314 4.693C64.7314 3.93033 64.8224 3.25867 65.0044 2.678C65.1864 2.09733 65.442 1.60767 65.7714 1.209C66.1094 0.810333 66.5124 0.511333 66.9804 0.312C67.457 0.104 67.99 0 68.5794 0C69.16 0 69.6887 0.104 70.1654 0.312C70.642 0.511333 71.045 0.810333 71.3744 1.209C71.7124 1.60767 71.9724 2.09733 72.1544 2.678C72.3364 3.25867 72.4274 3.93033 72.4274 4.693C72.4274 5.45567 72.3364 6.13167 72.1544 6.721C71.9724 7.30167 71.7124 7.79133 71.3744 8.19C71.045 8.58 70.642 8.879 70.1654 9.087C69.6887 9.28633 69.16 9.386 68.5794 9.386ZM68.5794 8.411C68.9694 8.411 69.329 8.34167 69.6584 8.203C69.9877 8.06433 70.2694 7.865 70.5034 7.605C70.746 7.345 70.9324 7.033 71.0624 6.669C71.1924 6.305 71.2574 5.89767 71.2574 5.447V3.939C71.2574 3.48833 71.1924 3.081 71.0624 2.717C70.9324 2.353 70.746 2.041 70.5034 1.781C70.2694 1.521 69.9877 1.32167 69.6584 1.183C69.329 1.04433 68.9694 0.975 68.5794 0.975C68.1894 0.975 67.8297 1.04433 67.5004 1.183C67.171 1.32167 66.885 1.521 66.6424 1.781C66.4084 2.041 66.2264 2.353 66.0964 2.717C65.9664 3.081 65.9014 3.48833 65.9014 3.939V5.447C65.9014 5.89767 65.9664 6.305 66.0964 6.669C66.2264 7.033 66.4084 7.345 66.6424 7.605C66.885 7.865 67.171 8.06433 67.5004 8.203C67.8297 8.34167 68.1894 8.411 68.5794 8.411Z" fill="black"/>
<path d="M74.9105 0.156H78.6415C79.3955 0.156 79.9848 0.368333 80.4095 0.793C80.8428 1.21767 81.0595 1.78533 81.0595 2.496C81.0595 2.834 81.0118 3.12 80.9165 3.354C80.8211 3.588 80.6998 3.783 80.5525 3.939C80.4051 4.08633 80.2448 4.199 80.0715 4.277C79.8981 4.34633 79.7378 4.394 79.5905 4.42V4.498C79.7551 4.50667 79.9371 4.55 80.1365 4.628C80.3445 4.706 80.5395 4.83167 80.7215 5.005C80.9035 5.16967 81.0551 5.38633 81.1765 5.655C81.3065 5.915 81.3715 6.23133 81.3715 6.604C81.3715 6.97667 81.3108 7.32333 81.1895 7.644C81.0768 7.96467 80.9165 8.242 80.7085 8.476C80.5005 8.71 80.2535 8.89633 79.9675 9.035C79.6815 9.165 79.3695 9.23 79.0315 9.23H74.9105V0.156ZM76.0025 8.268H78.6935C79.1615 8.268 79.5298 8.151 79.7985 7.917C80.0671 7.67433 80.2015 7.32333 80.2015 6.864V6.422C80.2015 5.96267 80.0671 5.616 79.7985 5.382C79.5298 5.13933 79.1615 5.018 78.6935 5.018H76.0025V8.268ZM76.0025 4.082H78.5115C78.9448 4.082 79.2828 3.97367 79.5255 3.757C79.7681 3.54033 79.8895 3.22833 79.8895 2.821V2.379C79.8895 1.97167 79.7681 1.65967 79.5255 1.443C79.2828 1.22633 78.9448 1.118 78.5115 1.118H76.0025V4.082Z" fill="black"/>
<path d="M82.6542 8.268H83.5902C83.7895 8.07733 83.9629 7.84767 84.1102 7.579C84.2575 7.30167 84.3789 6.95067 84.4742 6.526C84.5695 6.10133 84.6389 5.577 84.6822 4.953C84.7255 4.329 84.7472 3.56633 84.7472 2.665V0.156H90.2072V9.23H89.1152V1.118H85.7872V2.743C85.7872 3.679 85.7569 4.48067 85.6962 5.148C85.6442 5.80667 85.5662 6.37 85.4622 6.838C85.3582 7.29733 85.2282 7.67433 85.0722 7.969C84.9162 8.255 84.7385 8.49767 84.5392 8.697C84.3572 8.879 84.1535 9.01333 83.9282 9.1C83.7029 9.18667 83.4342 9.23 83.1222 9.23H82.6542V8.268Z" fill="black"/>
<path d="M93.1399 0.156H94.2059V5.85L94.1019 7.709H94.1409L95.0509 6.071L98.9249 0.156H99.9129V9.23H98.8469V3.536L98.9509 1.677H98.9119L98.0019 3.315L94.1279 9.23H93.1399V0.156Z" fill="black"/>
</svg>
