<svg width="371" height="375" viewBox="0 0 371 375" fill="none" xmlns="http://www.w3.org/2000/svg">
<path opacity="0.1" fill-rule="evenodd" clip-rule="evenodd" d="M99.0188 139.013C99.8818 67.0872 158.488 8.74134 230.623 8.74134C302.794 8.74134 362.226 67.1181 362.226 139.861C362.226 212.623 303.653 270.981 230.623 270.981C224.431 270.981 218.601 270.974 212.818 270.151C210.42 269.81 208.198 271.47 207.855 273.86C207.513 276.249 209.179 278.463 211.578 278.805C218.029 279.723 224.432 279.723 230.482 279.723H230.623C308.498 279.723 371 217.451 371 139.861C371 62.2537 307.602 0 230.623 0C153.615 0 91.1508 62.2708 90.2455 138.936L90.2452 138.987C90.2452 177.106 106.092 211.859 130.546 236.906L0.274747 367.549C-1.4328 369.261 -1.42373 372.029 0.29501 373.73C2.01375 375.431 4.79129 375.422 6.49884 373.71L139.857 239.971C140.685 239.141 141.144 238.015 141.132 236.845C141.12 235.675 140.637 234.559 139.792 233.746C115.147 210.038 99.0263 176.194 99.0188 139.013ZM191.141 69.9307C193.564 69.9307 195.528 71.8875 195.528 74.3014V100.525C195.528 102.939 193.564 104.896 191.141 104.896C188.719 104.896 186.755 102.939 186.755 100.525V74.3014C186.755 71.8875 188.719 69.9307 191.141 69.9307ZM270.104 69.9307C272.527 69.9307 274.491 71.8875 274.491 74.3014V100.525C274.491 102.939 272.527 104.896 270.104 104.896C267.681 104.896 265.717 102.939 265.717 100.525V74.3014C265.717 71.8875 267.681 69.9307 270.104 69.9307ZM230.623 187.637C205.48 187.637 187.433 176.092 172.538 193.406C170.962 195.238 168.192 195.451 166.353 193.88C164.513 192.309 164.3 189.549 165.877 187.717C182.567 168.317 203.123 178.896 230.623 178.896C257.363 178.896 286.607 169.274 303.195 187.637C304.815 189.432 304.669 192.195 302.869 193.81C301.068 195.425 298.294 195.279 296.673 193.485C281.676 176.883 254.769 187.637 230.623 187.637Z" fill="#828282"/>
</svg>
