<svg width="366" height="319" viewBox="0 0 366 319" fill="none" xmlns="http://www.w3.org/2000/svg">
<path opacity="0.05" fill-rule="evenodd" clip-rule="evenodd" d="M349.364 0.863281C358.552 0.863281 366 7.96436 366 16.724V302.217C366 310.976 358.552 318.077 349.364 318.077C340.176 318.077 332.727 310.976 332.727 302.217V16.724C332.727 7.96436 340.176 0.863281 349.364 0.863281ZM137.964 68.9516C144.46 62.7576 154.994 62.7576 161.491 68.9516L256.436 159.47L161.491 249.989C154.994 256.183 144.46 256.183 137.964 249.989C131.467 243.795 131.467 233.753 137.964 227.559L192.745 175.331H16.6364C7.44835 175.331 0 168.23 0 159.47C0 150.711 7.44835 143.61 16.6364 143.61H192.745L137.964 91.382C131.467 85.188 131.467 75.1456 137.964 68.9516Z" fill="#828282"/>
</svg>
