<svg width="377" height="396" viewBox="0 0 377 396" fill="none" xmlns="http://www.w3.org/2000/svg">
<path opacity="0.05" fill-rule="evenodd" clip-rule="evenodd" d="M188.5 1C198.855 1 207.25 9.81242 207.25 20.6831V178.148H357.25C367.605 178.148 376 186.96 376 197.831C376 208.702 367.605 217.514 357.25 217.514H207.25V374.979C207.25 385.849 198.855 394.662 188.5 394.662C178.145 394.662 169.75 385.849 169.75 374.979V217.514H19.75C9.39466 217.514 1 208.702 1 197.831C1 186.96 9.39466 178.148 19.75 178.148H169.75V20.6831C169.75 9.81242 178.145 1 188.5 1Z" fill="#828282" stroke="#828282" stroke-linecap="round"/>
</svg>
