<svg width="125" height="166" viewBox="0 0 125 166" fill="none" xmlns="http://www.w3.org/2000/svg">
<path opacity="0.05" d="M62.5 166C60.1266 166 57.7532 165.21 56.1709 162.838C50.6329 156.514 0 94.0667 0 62.4476C0 27.6667 27.6899 0 62.5 0C97.3101 0 125 27.6667 125 62.4476C125 74.3048 118.671 90.1143 106.013 110.667C103.639 114.619 98.8924 115.41 94.9367 113.038C90.981 110.667 90.1899 105.924 92.5633 101.971C106.013 79.8381 109.177 67.9809 109.177 62.4476C109.177 36.3619 87.8165 15.8095 62.5 15.8095C37.1835 15.8095 15.8228 37.1524 15.8228 62.4476C15.8228 82.2095 47.4684 127.267 68.8291 152.562C71.2025 156.514 71.2025 161.257 67.2468 164.419C66.4557 165.21 64.0823 166 62.5 166Z" fill="#828282"/>
</svg>
